<?xml version="1.0" encoding="utf-8"?>
<!-- Generator: Adobe Illustrator 27.8.0, SVG Export Plug-In . SVG Version: 6.00 Build 0)  -->
<svg version="1.1" id="Layer_1" xmlns="http://www.w3.org/2000/svg" xmlns:xlink="http://www.w3.org/1999/xlink" x="0px" y="0px"
	 viewBox="0 0 645 264" style="enable-background:new 0 0 645 264;" xml:space="preserve">
<style type="text/css">
	.st0{fill:#485156;}
	.st1{fill-rule:evenodd;clip-rule:evenodd;fill:#73CEE1;}
	.st2{fill-rule:evenodd;clip-rule:evenodd;fill:#00B9F2;}
	.st3{fill-rule:evenodd;clip-rule:evenodd;fill:#006BB6;}
	.st4{fill-rule:evenodd;clip-rule:evenodd;fill:#0067B3;}
</style>
<g>
	<g>
		<path class="st4" d="M146.97,102.22c-0.66,1.58-1.52,3.04-2.76,4.17c-5.56,5.05-16.28,3.53-25.47,3.45l-0.12-11.12h1.32
			c0,6.62,11.92,11.45,18.47,5.2c4.66-4.44,1.61-10.33-4.07-13.65l-9.48-5.54c-2.5-1.42-4.31-3.07-5.43-4.94
			c-1.12-1.87-1.68-3.91-1.68-6.14c0-1.82,0.34-3.46,1.02-4.9c4.42-9.39,17.83-6.72,26.05-6.13v9.6h-1.32
			c-0.17-5.39-6.84-8.09-12.03-6.96c-4.95,1.08-7.95,6.36-4.97,10.81c0.75,1.11,1.97,2.18,3.68,3.2c1.89,1.11,3.74,2.19,5.56,3.24
			c1.82,1.05,3.23,1.88,4.24,2.5c2.54,1.53,5.02,3.6,6.45,6.27C148.3,94.75,148.49,98.57,146.97,102.22L146.97,102.22z"/>
		<path class="st4" d="M198.33,108.52h-15.4v-1c0.48-0.09,0.97-0.23,1.45-0.43c0.48-0.2,0.92-0.5,1.32-0.9
			c0.39-0.4,0.71-0.92,0.95-1.57c0.24-0.64,0.36-1.48,0.36-2.5V87.78c0-0.67,0.13-1.17,0.4-1.5c0.26-0.33,0.57-0.5,0.92-0.5v-0.33
			H165.3v0.33c0.35,0,0.66,0.18,0.92,0.53c0.26,0.36,0.39,0.84,0.39,1.47v14.41c0,0.98,0.12,1.79,0.36,2.43
			c0.24,0.65,0.56,1.17,0.95,1.57c0.4,0.4,0.83,0.7,1.32,0.9c0.48,0.2,0.96,0.34,1.45,0.43v1h-15.4v-1
			c0.48-0.09,0.97-0.23,1.45-0.43c0.48-0.2,0.92-0.5,1.32-0.9c0.4-0.4,0.71-0.92,0.95-1.57c0.24-0.64,0.36-1.48,0.36-2.5V68.23
			c0-0.98-0.12-1.8-0.36-2.47c-0.24-0.67-0.56-1.2-0.95-1.6c-0.4-0.4-0.83-0.7-1.32-0.9c-0.48-0.2-0.96-0.35-1.45-0.44v-1h15.4v1
			c-0.48,0.09-0.97,0.23-1.45,0.44c-0.48,0.2-0.92,0.5-1.32,0.9c-0.4,0.4-0.71,0.93-0.95,1.6c-0.24,0.67-0.36,1.49-0.36,2.47v11.21
			c0,1.34-0.44,2-1.32,2v0.33h23.03v-0.33c-0.35,0-0.66-0.17-0.92-0.5c-0.26-0.33-0.4-0.83-0.4-1.5V68.23c0-0.98-0.12-1.8-0.36-2.47
			c-0.24-0.67-0.56-1.2-0.95-1.6c-0.4-0.4-0.83-0.7-1.32-0.9c-0.48-0.2-0.96-0.35-1.45-0.44v-1h15.4v1
			c-0.48,0.09-0.96,0.23-1.45,0.44c-0.48,0.2-0.92,0.5-1.32,0.9c-0.4,0.4-0.71,0.93-0.95,1.6c-0.24,0.67-0.36,1.49-0.36,2.47v33.96
			c0,0.98,0.12,1.79,0.36,2.43c0.24,0.65,0.56,1.17,0.95,1.57c0.4,0.4,0.83,0.7,1.32,0.9c0.48,0.2,0.96,0.34,1.45,0.43V108.52
			L198.33,108.52z"/>
		<path class="st4" d="M221.4,108.52H206v-1c0.48-0.09,0.96-0.23,1.45-0.43c0.48-0.2,0.92-0.5,1.32-0.9c0.4-0.4,0.71-0.92,0.95-1.57
			c0.24-0.64,0.36-1.48,0.36-2.5V68.23c0-0.98-0.12-1.8-0.36-2.47c-0.24-0.67-0.56-1.2-0.95-1.6c-0.4-0.4-0.83-0.7-1.32-0.9
			c-0.48-0.2-0.96-0.35-1.45-0.44v-1h15.4v1c-0.48,0.09-0.96,0.23-1.45,0.44c-0.48,0.2-0.92,0.5-1.32,0.9
			c-0.4,0.4-0.71,0.93-0.95,1.6c-0.24,0.67-0.36,1.49-0.36,2.47v33.96c0,0.98,0.12,1.79,0.36,2.43c0.24,0.65,0.56,1.17,0.95,1.57
			c0.4,0.4,0.83,0.7,1.32,0.9c0.48,0.2,0.96,0.34,1.45,0.43V108.52L221.4,108.52z"/>
		<path class="st4" d="M272.37,62.82c-1.67,0.45-2.89,1.1-3.65,1.97c-0.77,0.87-1.39,1.95-1.88,3.24l-14.81,40.5h-4.15l-15.4-41.23
			c-0.48-1.29-1.13-2.27-1.94-2.94c-0.81-0.67-1.85-1.18-3.13-1.54v-1h14.81v1c-0.96,0.05-1.7,0.36-2.2,0.93
			c-0.51,0.58-0.52,1.47-0.03,2.67l12.24,33.43l0.2-0.67c-0.18-0.49-0.24-0.95-0.2-1.37c0.04-0.42,0.18-0.92,0.39-1.5l10.79-29.69
			c0.44-1.11,0.43-1.97-0.03-2.57s-1.22-1.01-2.27-1.24v-1h11.25V62.82L272.37,62.82z"/>
		<path class="st4" d="M336.91,62.82c-1.62,0.36-2.71,0.97-3.26,1.84c-0.55,0.87-0.82,1.88-0.82,3.04v41.83l-32.11-40.16v0.67
			c0.31,0.36,0.53,0.77,0.66,1.23c0.13,0.47,0.2,1.14,0.2,2.03v29.36c0,1.2,0.3,2.25,0.89,3.14c0.59,0.89,1.68,1.47,3.26,1.74v1
			h-11.84v-1c1.62-0.36,2.71-0.97,3.26-1.84c0.55-0.87,0.82-1.88,0.82-3.04V65.96c-0.61-0.89-1.23-1.59-1.84-2.1
			c-0.61-0.51-1.36-0.86-2.24-1.03v-1h9.94l26.32,32.82v-0.73c-0.35-0.4-0.59-0.83-0.72-1.3c-0.13-0.47-0.2-1.08-0.2-1.84V67.69
			c0-1.2-0.3-2.25-0.89-3.14c-0.59-0.89-1.68-1.47-3.26-1.74v-1h11.85V62.82L336.91,62.82z M385.06,108.53h-14.81v-1
			c0.66-0.09,1.26-0.27,1.81-0.53c0.55-0.27,0.82-0.82,0.82-1.67c0-0.36-0.11-0.8-0.33-1.34l-3.55-8.94
			c-0.35-0.8-0.13-1.36,0.66-1.67l-0.13-0.4h-19.74l-0.07,0.33c0.66,0.31,0.81,0.89,0.46,1.74l-3.42,8.74
			c-0.09,0.22-0.15,0.43-0.2,0.63c-0.04,0.2-0.07,0.41-0.07,0.63c0,0.76,0.27,1.33,0.82,1.7c0.55,0.38,1.15,0.63,1.81,0.77v1h-11.25
			v-1c1.36-0.31,2.49-0.89,3.39-1.74c0.9-0.84,1.59-1.89,2.07-3.14l14.28-36.43c-0.48-1.11-1.01-1.91-1.58-2.4
			c-0.57-0.49-1.38-0.82-2.43-1v-1h9.87l16.65,41.3c0.48,1.2,1.11,2.13,1.88,2.8c0.77,0.67,1.79,1.2,3.06,1.6V108.53L385.06,108.53z
			 M367.89,88.98l-0.13-0.33c-0.48-0.09-0.88-0.23-1.18-0.43c-0.31-0.2-0.57-0.59-0.79-1.17l-6.71-17.21l-0.2,0.47
			c0.39,0.8,0.37,1.74-0.07,2.8l-5.46,13.94c-0.31,0.84-0.86,1.38-1.65,1.6l-0.13,0.33H367.89L367.89,88.98z M432.82,85.18
			c0,3.38-0.62,6.49-1.87,9.34c-1.25,2.85-2.96,5.3-5.14,7.37c-2.17,2.07-4.71,3.69-7.63,4.87c-2.92,1.18-6.04,1.77-9.38,1.77
			h-18.82v-1c0.48-0.09,0.96-0.24,1.45-0.43c0.48-0.2,0.92-0.5,1.31-0.9c0.4-0.4,0.71-0.92,0.95-1.57c0.24-0.65,0.36-1.48,0.36-2.5
			V68.16c0-0.98-0.12-1.8-0.36-2.47c-0.24-0.67-0.56-1.2-0.95-1.6c-0.39-0.4-0.83-0.69-1.31-0.87c-0.48-0.18-0.97-0.31-1.45-0.4v-1
			h18.82c3.33,0,6.46,0.59,9.38,1.77c2.92,1.18,5.46,2.8,7.63,4.87c2.17,2.07,3.89,4.53,5.14,7.37
			C432.2,78.68,432.82,81.79,432.82,85.18L432.82,85.18z M424.66,85.18c0-2.85-0.48-5.47-1.45-7.87c-0.97-2.4-2.3-4.48-4.02-6.24
			c-1.71-1.76-3.75-3.12-6.12-4.1c-2.37-0.98-4.96-1.47-7.77-1.47h-5.33v0.33c0.35,0,0.66,0.17,0.92,0.5c0.26,0.33,0.4,0.83,0.4,1.5
			v34.69c0,0.67-0.13,1.17-0.4,1.5c-0.26,0.34-0.57,0.5-0.92,0.5v0.33h5.33c2.81,0,5.4-0.49,7.77-1.47c2.37-0.98,4.41-2.35,6.12-4.1
			c1.71-1.76,3.05-3.84,4.02-6.24C424.18,90.65,424.66,88.02,424.66,85.18L424.66,85.18z M481.27,108.53h-14.81v-1
			c0.66-0.09,1.26-0.27,1.81-0.53c0.55-0.27,0.82-0.82,0.82-1.67c0-0.36-0.11-0.8-0.33-1.34l-3.55-8.94
			c-0.35-0.8-0.13-1.36,0.66-1.67l-0.13-0.4H446l-0.06,0.33c0.66,0.31,0.81,0.89,0.46,1.74l-3.42,8.74
			c-0.09,0.22-0.16,0.43-0.2,0.63c-0.04,0.2-0.07,0.41-0.07,0.63c0,0.76,0.28,1.33,0.82,1.7c0.55,0.38,1.15,0.63,1.81,0.77v1h-11.26
			v-1c1.36-0.31,2.49-0.89,3.39-1.74c0.9-0.84,1.59-1.89,2.07-3.14l14.28-36.43c-0.48-1.11-1.01-1.91-1.58-2.4
			c-0.57-0.49-1.38-0.82-2.43-1v-1h9.87l16.65,41.3c0.48,1.2,1.11,2.14,1.88,2.8c0.77,0.67,1.79,1.2,3.06,1.6V108.53L481.27,108.53z
			 M464.09,88.98l-0.13-0.33c-0.48-0.09-0.88-0.23-1.18-0.43c-0.31-0.2-0.57-0.59-0.79-1.17l-6.71-17.21l-0.2,0.47
			c0.39,0.8,0.37,1.74-0.07,2.8l-5.46,13.94c-0.31,0.84-0.86,1.38-1.65,1.6l-0.13,0.33H464.09L464.09,88.98z M527.25,108.53
			c-1.14,0.58-2.5,0.87-4.08,0.87c-3.51,0-5.84-1.65-6.98-4.94c-0.57-1.65-1.13-3.29-1.68-4.94c-0.55-1.65-1.04-3.11-1.48-4.4
			c-0.61-1.74-1.31-3.13-2.07-4.17c-0.77-1.05-1.61-1.86-2.53-2.43c-0.92-0.58-1.92-0.97-2.99-1.17c-1.07-0.2-2.21-0.3-3.39-0.3
			h-5.86v0.33c0.35,0,0.66,0.17,0.92,0.5c0.26,0.33,0.39,0.84,0.39,1.5v12.74c0,1.29,0.27,2.45,0.82,3.47
			c0.55,1.02,1.63,1.67,3.26,1.94v1h-15.4v-1c0.48-0.09,0.97-0.24,1.45-0.43c0.48-0.2,0.92-0.5,1.32-0.9
			c0.4-0.4,0.71-0.92,0.96-1.57c0.24-0.65,0.36-1.48,0.36-2.5V68.23c0-1.07-0.13-1.95-0.39-2.64c-0.26-0.69-0.6-1.23-1.02-1.63
			c-0.42-0.4-0.87-0.68-1.35-0.83c-0.48-0.16-0.92-0.26-1.32-0.3v-1h22.71c1.89,0,3.65,0.31,5.29,0.93c1.65,0.62,3.08,1.5,4.31,2.63
			c1.23,1.13,2.21,2.48,2.93,4.04c0.72,1.56,1.09,3.29,1.09,5.2c0,1.25-0.2,2.49-0.59,3.73c-0.39,1.25-0.99,2.41-1.78,3.5
			c-0.79,1.09-1.78,2.05-2.96,2.87c-1.18,0.82-2.54,1.43-4.08,1.83c1.54,0.53,2.9,1.39,4.08,2.57c1.18,1.18,2.13,2.79,2.83,4.84
			c0.26,0.8,0.58,1.71,0.95,2.74c0.37,1.02,0.72,2.03,1.05,3.04c0.33,1,0.65,1.92,0.95,2.77c0.31,0.85,0.53,1.49,0.66,1.94
			c0.44,1.16,0.98,1.99,1.61,2.5c0.63,0.51,1.31,0.7,2.01,0.57V108.53L527.25,108.53z M514.35,74.57c0-1.38-0.25-2.62-0.76-3.74
			c-0.5-1.11-1.21-2.07-2.11-2.87c-0.9-0.8-1.95-1.41-3.16-1.84c-1.21-0.42-2.51-0.63-3.92-0.63h-8.16v0.33
			c0.35,0,0.65,0.17,0.89,0.5c0.24,0.33,0.36,0.83,0.36,1.5v13.54c0,0.66-0.13,1.17-0.39,1.5c-0.26,0.33-0.57,0.5-0.92,0.5v0.33
			h8.23c1.36,0,2.64-0.2,3.85-0.6c1.2-0.4,2.26-0.99,3.16-1.77c0.9-0.78,1.61-1.73,2.14-2.87
			C514.09,77.34,514.35,76.03,514.35,74.57L514.35,74.57z"/>
		<path class="st4" d="M279.05,196.26c0-3.23-2.48-5.69-6.07-5.69h-4.26v11.42h4.26C276.57,201.98,279.05,199.49,279.05,196.26
			L279.05,196.26z M276.94,196.29c0,2.25-1.57,3.86-3.96,3.86h-2.25v-7.76h2.25C275.38,192.39,276.94,194.04,276.94,196.29
			L276.94,196.29z M291.82,190.57h-8.46v11.42h8.55v-1.8h-6.54v-3.06h5.72v-1.8h-5.72v-2.97h6.46V190.57L291.82,190.57z
			 M296.16,201.98h8.01v-1.83h-6v-9.59h-2.01V201.98L296.16,201.98z M315.59,197.17v4.81h2.01v-11.42h-2.01v4.75h-5.45v-4.75h-2.01
			v11.42h2.01v-4.81H315.59L315.59,197.17z M322.52,201.98h2.01v-11.42h-2.01V201.98L322.52,201.98z M345.89,198.46l-6.11-7.89
			h-1.86v11.42h1.97v-8.12l6.29,8.12h1.68v-11.42h-1.97V198.46L345.89,198.46z M362.61,200.15l-1.29-1.3
			c-0.98,0.91-1.88,1.48-3.28,1.48c-2.19,0-3.77-1.82-3.77-4.08c0-2.25,1.58-4.04,3.77-4.04c1.31,0,2.28,0.57,3.2,1.42l1.29-1.48
			c-1.09-1.04-2.36-1.78-4.47-1.78c-3.46,0-5.89,2.66-5.89,5.92c0,3.29,2.48,5.89,5.81,5.89
			C360.11,202.18,361.41,201.39,362.61,200.15L362.61,200.15z M376.27,201.98l-3.08-4.32c1.6-0.44,2.72-1.58,2.72-3.47
			c0-2.23-1.61-3.62-4.24-3.62h-5.09v11.42h2.01V198h2.51l2.81,3.98H376.27L376.27,201.98z M373.88,194.3
			c0,1.17-0.91,1.92-2.35,1.92h-2.94v-3.83h2.92C373,192.39,373.88,193.04,373.88,194.3L373.88,194.3z"/>
		<path class="st4" d="M203.4,164.81h-67.94c9.43-0.66,40.56-1.53,67.45-1.26C203.07,163.88,203.23,164.48,203.4,164.81
			L203.4,164.81z"/>
		<path class="st4" d="M203.4,165.41h-67.94c9.43,0.66,40.56,1.53,67.45,1.27C203.07,166.35,203.23,165.74,203.4,165.41
			L203.4,165.41z"/>
		<polygon class="st4" points="203.09,163.04 204.25,165.1 203.06,167.16 205.75,165.02 203.09,163.04 		"/>
		<path class="st4" d="M228.69,156.04h-2.03v10.46c0,3.93-2.11,5.94-5.43,5.94c-3.45,0-5.5-2.18-5.5-6.07v-10.33h-2.03v10.46
			c0,5.09,3.03,7.82,7.48,7.82c4.5,0,7.51-2.73,7.51-7.97V156.04L228.69,156.04z M253.81,170.47l-11.34-14.43h-1.9v18h1.98v-14.76
			l11.62,14.76h1.62v-18h-1.98V170.47L253.81,170.47z M268.14,174.04h2.03v-18h-2.03V174.04L268.14,174.04z M289.64,171.54
			l-6.4-15.5h-2.26l7.74,18.12h1.8l7.74-18.12h-2.19L289.64,171.54L289.64,171.54z M321.89,156.04h-13.01v18h13.14v-1.85h-11.11
			v-6.3h9.82v-1.85h-9.82v-6.14h10.98V156.04L321.89,156.04z M348.07,174.04l-5.53-7.35c2.83-0.51,4.88-2.26,4.88-5.27
			c0-3.24-2.54-5.37-6.5-5.37h-7.74v18h2.03v-6.99h5.14l5.22,6.99H348.07L348.07,174.04z M345.36,161.49c0,2.34-1.93,3.73-4.63,3.73
			h-5.53v-7.3h5.55C343.67,157.92,345.36,159.26,345.36,161.49L345.36,161.49z M360.41,160.54c0-1.64,1.49-2.93,3.83-2.93
			c1.85,0,3.52,0.59,5.19,1.96l1.18-1.57c-1.83-1.47-3.7-2.21-6.32-2.21c-3.42,0-5.91,2.06-5.91,4.94c0,2.98,1.9,4.32,6.04,5.22
			c3.78,0.8,4.68,1.75,4.68,3.44c0,1.83-1.59,3.09-4.01,3.09c-2.49,0-4.29-0.85-6.17-2.55l-1.26,1.49c2.16,1.93,4.5,2.88,7.35,2.88
			c3.57,0,6.14-2,6.14-5.11c0-2.78-1.85-4.24-5.86-5.11C361.34,163.22,360.41,162.26,360.41,160.54L360.41,160.54z M382.56,174.04
			h2.03v-18h-2.03V174.04L382.56,174.04z M403.75,157.92h6.04v-1.88h-14.14v1.88h6.04v16.12h2.06V157.92L403.75,157.92z
			 M428.36,166.89l7.48-10.85h-2.36l-6.12,9l-6.07-9h-2.47l7.48,10.88v7.12h2.06V166.89L428.36,166.89z"/>
		<path class="st4" d="M441.6,164.81h67.94c-9.43-0.66-40.56-1.53-67.45-1.26C441.93,163.88,441.77,164.48,441.6,164.81
			L441.6,164.81z"/>
		<path class="st4" d="M441.6,165.41h67.94c-9.43,0.66-40.56,1.53-67.45,1.27C441.93,166.35,441.77,165.74,441.6,165.41
			L441.6,165.41z"/>
		<polygon class="st4" points="441.9,163.04 440.75,165.1 441.94,167.16 439.25,165.02 441.9,163.04 		"/>
		<path class="st4" d="M136.43,144.45h1.11v-9.85h-1.11V144.45L136.43,144.45z M149.12,142.49l-6.21-7.9h-1.04v9.85h1.08v-8.08
			l6.37,8.08h0.89v-9.85h-1.08V142.49L149.12,142.49z M155.28,137.06c0-0.9,0.82-1.61,2.1-1.61c1.01,0,1.93,0.32,2.85,1.07
			l0.65-0.86c-1-0.8-2.03-1.21-3.47-1.21c-1.87,0-3.24,1.13-3.24,2.7c0,1.63,1.04,2.37,3.31,2.86c2.07,0.44,2.57,0.96,2.57,1.89
			c0,1-0.87,1.69-2.2,1.69c-1.37,0-2.35-0.47-3.38-1.39l-0.69,0.82c1.18,1.06,2.47,1.58,4.03,1.58c1.96,0,3.37-1.1,3.37-2.8
			c0-1.52-1.01-2.32-3.21-2.8C155.79,138.52,155.28,138,155.28,137.06L155.28,137.06z M168.39,135.62h3.31v-1.03h-7.75v1.03h3.31
			v8.82h1.13V135.62L168.39,135.62z M175.31,144.45h1.11v-9.85h-1.11V144.45L175.31,144.45z M184.48,135.62h3.31v-1.03h-7.75v1.03
			h3.31v8.82h1.13V135.62L184.48,135.62z M199.37,134.6h-1.11v5.73c0,2.15-1.15,3.25-2.97,3.25c-1.89,0-3.02-1.2-3.02-3.32v-5.66
			h-1.11v5.73c0,2.79,1.66,4.28,4.1,4.28c2.47,0,4.12-1.49,4.12-4.36V134.6L199.37,134.6z M207.16,135.62h3.31v-1.03h-7.75v1.03
			h3.31v8.82h1.13V135.62L207.16,135.62z M214.09,144.45h1.11v-9.85h-1.11V144.45L214.09,144.45z M229.14,139.51
			c0-2.73-2.01-5.08-5.01-5.08c-3,0-5.04,2.38-5.04,5.11c0,2.73,2.01,5.08,5.02,5.08C227.1,144.62,229.14,142.24,229.14,139.51
			L229.14,139.51z M227.99,139.54c0,2.25-1.61,4.05-3.86,4.05c-2.25,0-3.89-1.83-3.89-4.08c0-2.25,1.61-4.05,3.86-4.05
			C226.35,135.45,227.99,137.28,227.99,139.54L227.99,139.54z M240.18,142.49l-6.21-7.9h-1.04v9.85h1.08v-8.08l6.37,8.08h0.89v-9.85
			h-1.08V142.49L240.18,142.49z M263.16,139.51c0-2.73-2.02-5.08-5.02-5.08c-3,0-5.04,2.38-5.04,5.11c0,2.73,2.02,5.08,5.01,5.08
			C261.11,144.62,263.16,142.24,263.16,139.51L263.16,139.51z M262,139.54c0,2.25-1.61,4.05-3.86,4.05c-2.25,0-3.89-1.83-3.89-4.08
			c0-2.25,1.61-4.05,3.86-4.05C260.37,135.45,262,137.28,262,139.54L262,139.54z M274.02,134.6h-7.09v9.85h1.11v-4.29h5.34v-1.01
			h-5.34v-3.52h5.97V134.6L274.02,134.6z M292.55,134.6h-7.13v9.85h7.2v-1.01h-6.09v-3.45h5.38v-1.01h-5.38v-3.36h6.02V134.6
			L292.55,134.6z M304.61,136.47v7.98h1.11v-9.85h-1.13l-3.59,5.38l-3.59-5.38h-1.13v9.85h1.09v-7.97l3.59,5.26h0.06L304.61,136.47
			L304.61,136.47z M310.04,144.45h1.11v-9.85h-1.11V144.45L310.04,144.45z M322.73,142.49l-6.21-7.9h-1.04v9.85h1.09v-8.08
			l6.37,8.08h0.89v-9.85h-1.08V142.49L322.73,142.49z M335.16,134.6h-7.13v9.85h7.2v-1.01h-6.09v-3.45h5.38v-1.01h-5.38v-3.36h6.02
			V134.6L335.16,134.6z M346.16,142.49l-6.21-7.9h-1.04v9.85h1.09v-8.08l6.37,8.08h0.89v-9.85h-1.08V142.49L346.16,142.49z
			 M359.92,142.89l-0.73-0.72c-0.94,0.9-1.83,1.42-3.18,1.42c-2.17,0-3.82-1.79-3.82-4.08c0-2.29,1.64-4.05,3.82-4.05
			c1.34,0,2.27,0.56,3.1,1.35l0.76-0.82c-0.99-0.93-2.06-1.56-3.85-1.56c-2.9,0-4.99,2.29-4.99,5.11c0,2.84,2.1,5.08,4.95,5.08
			C357.76,144.62,358.89,143.93,359.92,142.89L359.92,142.89z M370.42,134.6h-7.13v9.85h7.2v-1.01h-6.09v-3.45h5.38v-1.01h-5.38
			v-3.36h6.02V134.6L370.42,134.6z M391.28,139.51c0-2.78-2.14-4.91-5.24-4.91h-3.42v9.85h3.42
			C389.14,144.45,391.28,142.29,391.28,139.51L391.28,139.51z M390.13,139.54c0,2.19-1.59,3.89-4.09,3.89h-2.31v-7.8h2.31
			C388.53,135.62,390.13,137.34,390.13,139.54L390.13,139.54z M402.19,134.6h-7.13v9.85h7.2v-1.01h-6.09v-3.45h5.38v-1.01h-5.38
			v-3.36h6.02V134.6L402.19,134.6z M413.06,134.6h-7.13v9.85h7.2v-1.01h-6.09v-3.45h5.38v-1.01h-5.38v-3.36h6.02V134.6L413.06,134.6
			z M425.13,136.47v7.98h1.11v-9.85h-1.13l-3.59,5.38l-3.59-5.38h-1.13v9.85h1.08v-7.97l3.59,5.26h0.06L425.13,136.47L425.13,136.47
			z M437.59,134.6h-7.13v9.85h7.2v-1.01h-6.09v-3.45h5.38v-1.01h-5.38v-3.36h6.02V134.6L437.59,134.6z M450,139.51
			c0-2.78-2.14-4.91-5.24-4.91h-3.42v9.85h3.42C447.85,144.45,450,142.29,450,139.51L450,139.51z M448.84,139.54
			c0,2.19-1.59,3.89-4.09,3.89h-2.31v-7.8h2.31C447.25,135.62,448.84,137.34,448.84,139.54L448.84,139.54z M463.78,135.62h3.31
			v-1.03h-7.75v1.03h3.31v8.82h1.13V135.62L463.78,135.62z M479.56,139.51c0-2.73-2.02-5.08-5.02-5.08c-3,0-5.04,2.38-5.04,5.11
			c0,2.73,2.01,5.08,5.02,5.08C477.51,144.62,479.56,142.24,479.56,139.51L479.56,139.51z M478.4,139.54c0,2.25-1.61,4.05-3.86,4.05
			c-2.25,0-3.89-1.83-3.89-4.08c0-2.25,1.61-4.05,3.86-4.05C476.77,135.45,478.4,137.28,478.4,139.54L478.4,139.54z M493.97,134.6
			h-4.2v9.85h4.38c2.16,0,3.58-1,3.58-2.7c0-1.37-0.94-2.04-2.11-2.39c0.77-0.34,1.56-1,1.56-2.29
			C497.18,135.55,495.91,134.6,493.97,134.6L493.97,134.6z M493.78,138.99h-2.92v-3.39h3c1.41,0,2.18,0.63,2.18,1.62
			C496.05,138.38,495.12,138.99,493.78,138.99L493.78,138.99z M494.18,143.45h-3.31v-3.48h3.11c1.72,0,2.62,0.62,2.62,1.7
			C496.6,142.79,495.67,143.45,494.18,143.45L494.18,143.45z M508.5,134.6h-7.13v9.85h7.2v-1.01h-6.09v-3.45h5.38v-1.01h-5.38v-3.36
			h6.02V134.6L508.5,134.6z"/>
		<path class="st4" d="M119.93,128.08v47.04c-0.77,0-1.99-0.4-1.99-1.63v-43.78C117.94,128.48,119.16,128.08,119.93,128.08
			L119.93,128.08z"/>
		<path class="st4" d="M525.07,128.08v47.04c0.77,0,1.99-0.4,1.99-1.63v-43.78C527.06,128.48,525.84,128.08,525.07,128.08
			L525.07,128.08z"/>
	</g>
</g>
</svg>
