<svg width="410" height="142" viewBox="0 0 410 142" fill="none" xmlns="http://www.w3.org/2000/svg">
<path fill-rule="evenodd" clip-rule="evenodd" d="M29.22 41.2249C28.56 42.8049 27.7 44.2649 26.46 45.3949C20.9 50.4449 10.18 48.9249 0.989998 48.8449L0.870003 37.7249H2.19C2.19 44.3449 14.11 49.1749 20.66 42.9249C25.32 38.4849 22.27 32.5949 16.59 29.2749L7.11 23.7349C4.61 22.3149 2.8 20.6649 1.68 18.7949C0.56 16.9249 0 14.8849 0 12.6549C0 10.8349 0.339997 9.19494 1.02 7.75494C5.44 -1.63506 18.85 1.03494 27.07 1.62494V11.2249H25.75C25.58 5.83494 18.91 3.13494 13.72 4.26494C8.77 5.34494 5.77 10.6249 8.75 15.0749C9.5 16.1849 10.72 17.2549 12.43 18.2749C14.32 19.3849 16.17 20.4649 17.99 21.5149C19.81 22.5649 21.22 23.3949 22.23 24.0149C24.77 25.5449 27.25 27.6149 28.68 30.2849C30.55 33.7549 30.74 37.5749 29.22 41.2249Z" fill="white"/>
<path fill-rule="evenodd" clip-rule="evenodd" d="M80.58 47.5249H65.18V46.5249C65.66 46.4349 66.1501 46.2949 66.6301 46.0949C67.1101 45.8949 67.55 45.595 67.95 45.195C68.34 44.795 68.66 44.275 68.9 43.625C69.14 42.985 69.26 42.145 69.26 41.125V26.785C69.26 26.115 69.39 25.615 69.66 25.285C69.92 24.955 70.23 24.785 70.58 24.785V24.4549H47.55V24.785C47.9 24.785 48.21 24.9649 48.47 25.3149C48.73 25.6749 48.86 26.155 48.86 26.785V41.195C48.86 42.175 48.98 42.985 49.22 43.625C49.46 44.275 49.78 44.795 50.17 45.195C50.57 45.595 51.0001 45.8949 51.4901 46.0949C51.9701 46.2949 52.45 46.4349 52.94 46.5249V47.5249H37.54V46.5249C38.02 46.4349 38.5101 46.2949 38.9901 46.0949C39.4701 45.8949 39.91 45.595 40.31 45.195C40.71 44.795 41.02 44.275 41.26 43.625C41.5 42.985 41.62 42.145 41.62 41.125V7.23495C41.62 6.25495 41.5 5.43495 41.26 4.76495C41.02 4.09495 40.7 3.56496 40.31 3.16496C39.91 2.76496 39.4801 2.46495 38.9901 2.26495C38.5101 2.06495 38.03 1.91495 37.54 1.82495V0.824951H52.94V1.82495C52.46 1.91495 51.9701 2.05495 51.4901 2.26495C51.0101 2.46495 50.57 2.76496 50.17 3.16496C49.77 3.56496 49.46 4.09495 49.22 4.76495C48.98 5.43495 48.86 6.25495 48.86 7.23495V18.445C48.86 19.785 48.42 20.445 47.54 20.445V20.7749H70.5701V20.445C70.2201 20.445 69.91 20.275 69.65 19.945C69.39 19.615 69.25 19.115 69.25 18.445V7.23495C69.25 6.25495 69.13 5.43495 68.89 4.76495C68.65 4.09495 68.33 3.56496 67.94 3.16496C67.54 2.76496 67.11 2.46495 66.62 2.26495C66.14 2.06495 65.66 1.91495 65.17 1.82495V0.824951H80.5701V1.82495C80.0901 1.91495 79.61 2.05495 79.12 2.26495C78.64 2.46495 78.2 2.76496 77.8 3.16496C77.4 3.56496 77.0901 4.09495 76.8501 4.76495C76.6101 5.43495 76.4901 6.25495 76.4901 7.23495V41.195C76.4901 42.175 76.6101 42.985 76.8501 43.625C77.0901 44.275 77.41 44.795 77.8 45.195C78.2 45.595 78.63 45.8949 79.12 46.0949C79.6 46.2949 80.0801 46.4349 80.5701 46.5249V47.5249H80.58Z" fill="white"/>
<path fill-rule="evenodd" clip-rule="evenodd" d="M103.65 47.5249H88.25V46.5249C88.73 46.4349 89.21 46.2949 89.7 46.0949C90.18 45.8949 90.62 45.595 91.02 45.195C91.42 44.795 91.73 44.275 91.97 43.625C92.21 42.985 92.33 42.145 92.33 41.125V7.23495C92.33 6.25495 92.21 5.43495 91.97 4.76495C91.73 4.09495 91.41 3.56496 91.02 3.16496C90.62 2.76496 90.19 2.46495 89.7 2.26495C89.22 2.06495 88.74 1.91495 88.25 1.82495V0.824951H103.65V1.82495C103.17 1.91495 102.69 2.05495 102.2 2.26495C101.72 2.46495 101.28 2.76496 100.88 3.16496C100.48 3.56496 100.17 4.09495 99.93 4.76495C99.69 5.43495 99.57 6.25495 99.57 7.23495V41.195C99.57 42.175 99.69 42.985 99.93 43.625C100.17 44.275 100.49 44.795 100.88 45.195C101.28 45.595 101.71 45.8949 102.2 46.0949C102.68 46.2949 103.16 46.4349 103.65 46.5249V47.5249Z" fill="white"/>
<path fill-rule="evenodd" clip-rule="evenodd" d="M154.62 1.82494C152.95 2.27494 151.73 2.92494 150.97 3.79494C150.2 4.66494 149.58 5.74494 149.09 7.03494L134.28 47.5349H130.13L114.73 6.30494C114.25 5.01494 113.6 4.03494 112.79 3.36494C111.98 2.69494 110.94 2.18494 109.66 1.82494V0.82494H124.47V1.82494C123.51 1.87494 122.77 2.18494 122.27 2.75494C121.76 3.33494 121.75 4.22494 122.24 5.42494L134.48 38.8549L134.68 38.1849C134.5 37.6949 134.44 37.2349 134.48 36.8149C134.52 36.3949 134.66 35.8949 134.87 35.3149L145.66 5.62494C146.1 4.51494 146.09 3.65494 145.63 3.05494C145.17 2.45494 144.41 2.04494 143.36 1.81494V0.814941H154.61V1.82494H154.62Z" fill="white"/>
<path fill-rule="evenodd" clip-rule="evenodd" d="M219.16 1.82494C217.54 2.18494 216.45 2.79494 215.9 3.66494C215.35 4.53494 215.08 5.54494 215.08 6.70494V48.5349L182.97 8.37494V9.04494C183.28 9.40494 183.5 9.81494 183.63 10.2749C183.76 10.7449 183.83 11.4149 183.83 12.3049V41.6649C183.83 42.8649 184.13 43.9149 184.72 44.8049C185.31 45.6949 186.4 46.2749 187.98 46.5449V47.5449H176.14V46.5449C177.76 46.1849 178.85 45.5749 179.4 44.7049C179.95 43.8349 180.22 42.8249 180.22 41.6649V4.96494C179.61 4.07494 178.99 3.37494 178.38 2.86494C177.77 2.35494 177.02 2.00494 176.14 1.83494V0.834942H186.08L212.4 33.6549V32.9249C212.05 32.5249 211.81 32.0949 211.68 31.6249C211.55 31.1549 211.48 30.5449 211.48 29.7849V6.69494C211.48 5.49494 211.18 4.44494 210.59 3.55494C210 2.66494 208.91 2.08494 207.33 1.81494V0.814941H219.18V1.82494H219.16ZM267.31 47.5349H252.5V46.5349C253.16 46.4449 253.76 46.2649 254.31 46.0049C254.86 45.7349 255.13 45.1849 255.13 44.3349C255.13 43.9749 255.02 43.5349 254.8 42.9949L251.25 34.0549C250.9 33.2549 251.12 32.6949 251.91 32.3849L251.78 31.9849H232.04L231.97 32.3149C232.63 32.6249 232.78 33.2049 232.43 34.0549L229.01 42.7949C228.92 43.0149 228.86 43.2249 228.81 43.4249C228.77 43.6249 228.74 43.8349 228.74 44.0549C228.74 44.8149 229.01 45.3849 229.56 45.7549C230.11 46.1349 230.71 46.3849 231.37 46.5249V47.5249H220.12V46.5249C221.48 46.2149 222.61 45.6349 223.51 44.7849C224.41 43.9449 225.1 42.8949 225.58 41.6449L239.86 5.21494C239.38 4.10494 238.85 3.30494 238.28 2.81494C237.71 2.32494 236.9 1.99494 235.85 1.81494V0.814941H245.72L262.37 42.1149C262.85 43.3149 263.48 44.2449 264.25 44.9149C265.02 45.5849 266.04 46.1149 267.31 46.5149V47.5349ZM250.14 27.9849L250.01 27.6549C249.53 27.5649 249.13 27.4249 248.83 27.2249C248.52 27.0249 248.26 26.6349 248.04 26.0549L241.33 8.84494L241.13 9.31494C241.52 10.1149 241.5 11.0549 241.06 12.1149L235.6 26.0549C235.29 26.8949 234.74 27.4349 233.95 27.6549L233.82 27.9849H250.14ZM315.07 24.1849C315.07 27.5649 314.45 30.6749 313.2 33.5249C311.95 36.3749 310.24 38.8249 308.06 40.8949C305.89 42.9649 303.35 44.5849 300.43 45.7649C297.51 46.9449 294.39 47.5349 291.05 47.5349H272.23V46.5349C272.71 46.4449 273.19 46.2949 273.68 46.1049C274.16 45.9049 274.6 45.6049 274.99 45.2049C275.39 44.8049 275.7 44.2849 275.94 43.6349C276.18 42.9849 276.3 42.1549 276.3 41.1349V7.16494C276.3 6.18494 276.18 5.36494 275.94 4.69494C275.7 4.02494 275.38 3.49494 274.99 3.09494C274.6 2.69494 274.16 2.40494 273.68 2.22494C273.2 2.04494 272.71 1.91494 272.23 1.82494V0.82494H291.05C294.38 0.82494 297.51 1.41494 300.43 2.59494C303.35 3.77494 305.89 5.39494 308.06 7.46494C310.23 9.53494 311.95 11.9949 313.2 14.8349C314.45 17.6849 315.07 20.7949 315.07 24.1849ZM306.91 24.1849C306.91 21.3349 306.43 18.7149 305.46 16.3149C304.49 13.9149 303.16 11.8349 301.44 10.0749C299.73 8.31494 297.69 6.95494 295.32 5.97494C292.95 4.99494 290.36 4.50494 287.55 4.50494H282.22V4.83494C282.57 4.83494 282.88 5.00494 283.14 5.33494C283.4 5.66494 283.54 6.16494 283.54 6.83494V41.5249C283.54 42.1949 283.41 42.6949 283.14 43.0249C282.88 43.3649 282.57 43.5249 282.22 43.5249V43.8549H287.55C290.36 43.8549 292.95 43.3649 295.32 42.3849C297.69 41.4049 299.73 40.0349 301.44 38.2849C303.15 36.5249 304.49 34.4449 305.46 32.0449C306.43 29.6549 306.91 27.0249 306.91 24.1849ZM363.52 47.5349H348.71V46.5349C349.37 46.4449 349.97 46.2649 350.52 46.0049C351.07 45.7349 351.34 45.1849 351.34 44.3349C351.34 43.9749 351.23 43.5349 351.01 42.9949L347.46 34.0549C347.11 33.2549 347.33 32.6949 348.12 32.3849L347.99 31.9849H328.25L328.19 32.3149C328.85 32.6249 329 33.2049 328.65 34.0549L325.23 42.7949C325.14 43.0149 325.07 43.2249 325.03 43.4249C324.99 43.6249 324.96 43.8349 324.96 44.0549C324.96 44.8149 325.24 45.3849 325.78 45.7549C326.33 46.1349 326.93 46.3849 327.59 46.5249V47.5249H316.33V46.5249C317.69 46.2149 318.82 45.6349 319.72 44.7849C320.62 43.9449 321.31 42.8949 321.79 41.6449L336.07 5.21494C335.59 4.10494 335.06 3.30494 334.49 2.81494C333.92 2.32494 333.11 1.99494 332.06 1.81494V0.814941H341.93L358.58 42.1149C359.06 43.3149 359.69 44.2549 360.46 44.9149C361.23 45.5849 362.25 46.1149 363.52 46.5149V47.5349ZM346.34 27.9849L346.21 27.6549C345.73 27.5649 345.33 27.4249 345.03 27.2249C344.72 27.0249 344.46 26.6349 344.24 26.0549L337.53 8.84494L337.33 9.31494C337.72 10.1149 337.7 11.0549 337.26 12.1149L331.8 26.0549C331.49 26.8949 330.94 27.4349 330.15 27.6549L330.02 27.9849H346.34ZM409.5 47.5349C408.36 48.1149 407 48.4049 405.42 48.4049C401.91 48.4049 399.58 46.7549 398.44 43.4649C397.87 41.8149 397.31 40.1749 396.76 38.5249C396.21 36.8749 395.72 35.4149 395.28 34.1249C394.67 32.3849 393.97 30.9949 393.21 29.9549C392.44 28.9049 391.6 28.0949 390.68 27.5249C389.76 26.9449 388.76 26.5549 387.69 26.3549C386.62 26.1549 385.48 26.0549 384.3 26.0549H378.44V26.3849C378.79 26.3849 379.1 26.5549 379.36 26.8849C379.62 27.2149 379.75 27.7249 379.75 28.3849V41.1249C379.75 42.4149 380.02 43.5749 380.57 44.5949C381.12 45.6149 382.2 46.2649 383.83 46.5349V47.5349H368.43V46.5349C368.91 46.4449 369.4 46.2949 369.88 46.1049C370.36 45.9049 370.8 45.6049 371.2 45.2049C371.6 44.8049 371.91 44.2849 372.16 43.6349C372.4 42.9849 372.52 42.1549 372.52 41.1349V7.23494C372.52 6.16494 372.39 5.28494 372.13 4.59494C371.87 3.90494 371.53 3.36494 371.11 2.96494C370.69 2.56494 370.24 2.28494 369.76 2.13494C369.28 1.97494 368.84 1.87494 368.44 1.83494V0.834942H391.15C393.04 0.834942 394.8 1.14494 396.44 1.76494C398.09 2.38494 399.52 3.26494 400.75 4.39494C401.98 5.52494 402.96 6.87494 403.68 8.43494C404.4 9.99494 404.77 11.7249 404.77 13.6349C404.77 14.8849 404.57 16.1249 404.18 17.3649C403.79 18.6149 403.19 19.7749 402.4 20.8649C401.61 21.9549 400.62 22.9149 399.44 23.7349C398.26 24.5549 396.9 25.1649 395.36 25.5649C396.9 26.0949 398.26 26.9549 399.44 28.1349C400.62 29.3149 401.57 30.9249 402.27 32.9749C402.53 33.7749 402.85 34.6849 403.22 35.7149C403.59 36.7349 403.94 37.7449 404.27 38.7549C404.6 39.7549 404.92 40.6749 405.22 41.5249C405.53 42.3749 405.75 43.0149 405.88 43.4649C406.32 44.6249 406.86 45.4549 407.49 45.9649C408.12 46.4749 408.8 46.6649 409.5 46.5349V47.5349ZM396.6 13.5749C396.6 12.1949 396.35 10.9549 395.84 9.83494C395.34 8.72494 394.63 7.76494 393.73 6.96494C392.83 6.16494 391.78 5.55494 390.57 5.12494C389.36 4.70494 388.06 4.49494 386.65 4.49494H378.49V4.82494C378.84 4.82494 379.14 4.99494 379.38 5.32494C379.62 5.65494 379.74 6.15494 379.74 6.82494V20.3649C379.74 21.0249 379.61 21.5349 379.35 21.8649C379.09 22.1949 378.78 22.3649 378.43 22.3649V22.6949H386.66C388.02 22.6949 389.3 22.4949 390.51 22.0949C391.71 21.6949 392.77 21.1049 393.67 20.3249C394.57 19.5449 395.28 18.5949 395.81 17.4549C396.34 16.3449 396.6 15.0349 396.6 13.5749Z" fill="white"/>
<path fill-rule="evenodd" clip-rule="evenodd" d="M161.3 135.265C161.3 132.035 158.82 129.575 155.23 129.575H150.97V140.995H155.23C158.82 140.985 161.3 138.495 161.3 135.265ZM159.19 135.295C159.19 137.545 157.62 139.155 155.23 139.155H152.98V131.395H155.23C157.63 131.395 159.19 133.045 159.19 135.295ZM174.07 129.575H165.61V140.995H174.16V139.195H167.62V136.135H173.34V134.335H167.62V131.365H174.08V129.575H174.07ZM178.41 140.985H186.42V139.155H180.42V129.565H178.41V140.985ZM197.84 136.175V140.985H199.85V129.565H197.84V134.315H192.39V129.565H190.38V140.985H192.39V136.175H197.84ZM204.77 140.985H206.78V129.565H204.77V140.985ZM228.14 137.465L222.03 129.575H220.17V140.995H222.14V132.875L228.43 140.995H230.11V129.575H228.14V137.465ZM244.86 139.155L243.57 137.855C242.59 138.765 241.69 139.335 240.29 139.335C238.1 139.335 236.52 137.515 236.52 135.255C236.52 133.005 238.1 131.215 240.29 131.215C241.6 131.215 242.57 131.785 243.49 132.635L244.78 131.155C243.69 130.115 242.42 129.375 240.31 129.375C236.85 129.375 234.42 132.035 234.42 135.295C234.42 138.585 236.9 141.185 240.23 141.185C242.36 141.185 243.66 140.395 244.86 139.155ZM258.52 140.985L255.44 136.665C257.04 136.225 258.16 135.085 258.16 133.195C258.16 130.965 256.55 129.575 253.92 129.575H248.83V140.995H250.84V137.005H253.35L256.16 140.985H258.52ZM256.13 133.305C256.13 134.475 255.22 135.225 253.78 135.225H250.84V131.395H253.76C255.25 131.395 256.13 132.045 256.13 133.305Z" fill="white"/>
<path fill-rule="evenodd" clip-rule="evenodd" d="M85.6499 103.815H17.71C27.14 103.155 58.27 102.285 85.16 102.555C85.32 102.885 85.4799 103.485 85.6499 103.815Z" fill="white"/>
<path fill-rule="evenodd" clip-rule="evenodd" d="M85.6499 104.415H17.71C27.14 105.075 58.27 105.945 85.16 105.685C85.32 105.355 85.4799 104.745 85.6499 104.415Z" fill="white"/>
<path fill-rule="evenodd" clip-rule="evenodd" d="M85.3401 102.045L86.5001 104.105L85.3101 106.165L88.0001 104.025L85.3401 102.045Z" fill="white"/>
<path fill-rule="evenodd" clip-rule="evenodd" d="M110.94 95.0449H108.91V105.505C108.91 109.435 106.8 111.445 103.48 111.445C100.03 111.445 97.9799 109.265 97.9799 105.375V95.0449H95.95V105.505C95.95 110.595 98.9799 113.325 103.43 113.325C107.93 113.325 110.94 110.595 110.94 105.355V95.0449ZM136.06 109.475L124.72 95.0449H122.82V113.045H124.8V98.2849L136.42 113.045H138.04V95.0449H136.06V109.475ZM150.39 113.045H152.42V95.0449H150.39V113.045ZM171.89 110.545L165.49 95.0449H163.23L170.97 113.165H172.77L180.51 95.0449H178.32L171.89 110.545ZM204.14 95.0449H191.13V113.045H204.27V111.195H193.16V104.895H202.98V103.045H193.16V96.9049H204.14V95.0449ZM230.32 113.045L224.79 105.695C227.62 105.185 229.67 103.435 229.67 100.425C229.67 97.1849 227.13 95.0549 223.17 95.0549H215.43V113.055H217.46V106.065H222.6L227.82 113.055H230.32V113.045ZM227.61 100.495C227.61 102.835 225.68 104.225 222.98 104.225H217.45V96.9249H223C225.92 96.9249 227.61 98.2649 227.61 100.495ZM242.66 99.5449C242.66 97.9049 244.15 96.6149 246.49 96.6149C248.34 96.6149 250.01 97.2049 251.68 98.5749L252.86 97.0049C251.03 95.5349 249.16 94.7949 246.54 94.7949C243.12 94.7949 240.63 96.8549 240.63 99.7349C240.63 102.715 242.53 104.055 246.67 104.955C250.45 105.755 251.35 106.705 251.35 108.395C251.35 110.225 249.76 111.485 247.34 111.485C244.85 111.485 243.05 110.635 241.17 108.935L239.91 110.425C242.07 112.355 244.41 113.305 247.26 113.305C250.83 113.305 253.4 111.305 253.4 108.195C253.4 105.415 251.55 103.955 247.54 103.085C243.59 102.225 242.66 101.265 242.66 99.5449ZM264.81 113.045H266.84V95.0449H264.81V113.045ZM286 96.9249H292.04V95.0449H277.9V96.9249H283.94V113.045H286V96.9249ZM310.61 105.895L318.09 95.0449H315.73L309.61 104.045L303.54 95.0449H301.07L308.55 105.925V113.045H310.61V105.895Z" fill="white"/>
<path fill-rule="evenodd" clip-rule="evenodd" d="M323.85 103.815H391.79C382.36 103.155 351.23 102.285 324.34 102.555C324.18 102.885 324.02 103.485 323.85 103.815Z" fill="white"/>
<path fill-rule="evenodd" clip-rule="evenodd" d="M323.85 104.415H391.79C382.36 105.075 351.23 105.945 324.34 105.685C324.18 105.355 324.02 104.745 323.85 104.415Z" fill="white"/>
<path fill-rule="evenodd" clip-rule="evenodd" d="M324.15 102.045L323 104.105L324.19 106.165L321.5 104.025L324.15 102.045Z" fill="white"/>
<path fill-rule="evenodd" clip-rule="evenodd" d="M18.6799 83.4549H19.7899V73.6049H18.6799V83.4549ZM31.3699 81.4949L25.1599 73.5949H24.1199V83.4449H25.1999V75.3649L31.5699 83.4449H32.4599V73.5949H31.3799V81.4949H31.3699ZM37.5299 76.0649C37.5299 75.1649 38.3499 74.4549 39.6299 74.4549C40.6399 74.4549 41.5599 74.7749 42.4799 75.5249L43.1299 74.6649C42.1299 73.8649 41.0999 73.4549 39.6599 73.4549C37.7899 73.4549 36.4199 74.5849 36.4199 76.1549C36.4199 77.7849 37.4599 78.5249 39.7299 79.0149C41.7999 79.4549 42.2999 79.9749 42.2999 80.9049C42.2999 81.9049 41.4299 82.5949 40.0999 82.5949C38.7299 82.5949 37.7499 82.1249 36.7199 81.2049L36.0299 82.0249C37.2099 83.0849 38.4999 83.6049 40.0599 83.6049C42.0199 83.6049 43.4299 82.5049 43.4299 80.8049C43.4299 79.2849 42.4199 78.4849 40.2199 78.0049C38.0399 77.5249 37.5299 77.0049 37.5299 76.0649ZM50.6399 74.6249H53.9499V73.5949H46.1999V74.6249H49.5099V83.4449H50.6399V74.6249ZM57.5599 83.4549H58.6699V73.6049H57.5599V83.4549ZM66.7299 74.6249H70.0399V73.5949H62.2899V74.6249H65.5999V83.4449H66.7299V74.6249ZM81.6199 73.6049H80.5099V79.3349C80.5099 81.4849 79.3599 82.5849 77.5399 82.5849C75.6499 82.5849 74.5199 81.3849 74.5199 79.2649V73.6049H73.4099V79.3349C73.4099 82.1249 75.0699 83.6149 77.5099 83.6149C79.9799 83.6149 81.6299 82.1249 81.6299 79.2549V73.6049H81.6199ZM89.4099 74.6249H92.7199V73.5949H84.9699V74.6249H88.2799V83.4449H89.4099V74.6249ZM96.3399 83.4549H97.4499V73.6049H96.3399V83.4549ZM111.39 78.5149C111.39 75.7849 109.38 73.4349 106.38 73.4349C103.38 73.4349 101.34 75.8149 101.34 78.5449C101.34 81.2749 103.35 83.6249 106.36 83.6249C109.35 83.6249 111.39 81.2449 111.39 78.5149ZM110.24 78.5449C110.24 80.7949 108.63 82.5949 106.38 82.5949C104.13 82.5949 102.49 80.7649 102.49 78.5149C102.49 76.2649 104.1 74.465 106.35 74.465C108.6 74.455 110.24 76.2849 110.24 78.5449ZM122.43 81.4949L116.22 73.5949H115.18V83.4449H116.26V75.3649L122.63 83.4449H123.52V73.5949H122.44V81.4949H122.43ZM145.41 78.5149C145.41 75.7849 143.39 73.4349 140.39 73.4349C137.39 73.4349 135.35 75.8149 135.35 78.5449C135.35 81.2749 137.37 83.6249 140.36 83.6249C143.36 83.6249 145.41 81.2449 145.41 78.5149ZM144.25 78.5449C144.25 80.7949 142.64 82.5949 140.39 82.5949C138.14 82.5949 136.5 80.7649 136.5 78.5149C136.5 76.2649 138.11 74.465 140.36 74.465C142.62 74.455 144.25 76.2849 144.25 78.5449ZM156.27 73.6049H149.18V83.4549H150.29V79.1649H155.63V78.1549H150.29V74.6349H156.26V73.6049H156.27ZM174.8 73.6049H167.67V83.4549H174.87V82.4449H168.78V78.9949H174.16V77.9849H168.78V74.6249H174.8V73.6049ZM186.86 75.4749V83.4549H187.97V73.6049H186.84L183.25 78.9849L179.66 73.6049H178.53V83.4549H179.62V75.4849L183.21 80.7449H183.27L186.86 75.4749ZM192.29 83.4549H193.4V73.6049H192.29V83.4549ZM204.98 81.4949L198.77 73.5949H197.73V83.4449H198.82V75.3649L205.19 83.4449H206.08V73.5949H205V81.4949H204.98ZM217.41 73.6049H210.28V83.4549H217.48V82.4449H211.39V78.9949H216.77V77.9849H211.39V74.6249H217.41V73.6049ZM228.41 81.4949L222.2 73.5949H221.16V83.4449H222.25V75.3649L228.62 83.4449H229.51V73.5949H228.43V81.4949H228.41ZM242.17 81.8949L241.44 81.1749C240.5 82.0749 239.61 82.5949 238.26 82.5949C236.09 82.5949 234.44 80.8049 234.44 78.5149C234.44 76.2249 236.08 74.465 238.26 74.465C239.6 74.465 240.53 75.0249 241.36 75.8149L242.12 74.9949C241.13 74.0649 240.06 73.4349 238.27 73.4349C235.37 73.4349 233.28 75.7249 233.28 78.5449C233.28 81.3849 235.38 83.6249 238.23 83.6249C240.01 83.6249 241.14 82.9349 242.17 81.8949ZM252.67 73.6049H245.54V83.4549H252.74V82.4449H246.65V78.9949H252.03V77.9849H246.65V74.6249H252.67V73.6049ZM273.53 78.5149C273.53 75.7349 271.39 73.6049 268.29 73.6049H264.87V83.4549H268.29C271.39 83.4549 273.53 81.2949 273.53 78.5149ZM272.38 78.5449C272.38 80.7349 270.79 82.4349 268.29 82.4349H265.98V74.6349H268.29C270.78 74.6249 272.38 76.3449 272.38 78.5449ZM284.44 73.6049H277.31V83.4549H284.51V82.4449H278.42V78.9949H283.8V77.9849H278.42V74.6249H284.44V73.6049ZM295.31 73.6049H288.18V83.4549H295.38V82.4449H289.29V78.9949H294.67V77.9849H289.29V74.6249H295.31V73.6049ZM307.38 75.4749V83.4549H308.49V73.6049H307.36L303.77 78.9849L300.18 73.6049H299.05V83.4549H300.13V75.4849L303.72 80.7449H303.78L307.38 75.4749ZM319.84 73.6049H312.71V83.4549H319.91V82.4449H313.82V78.9949H319.2V77.9849H313.82V74.6249H319.84V73.6049ZM332.25 78.5149C332.25 75.7349 330.11 73.6049 327.01 73.6049H323.59V83.4549H327.01C330.1 83.4549 332.25 81.2949 332.25 78.5149ZM331.09 78.5449C331.09 80.7349 329.5 82.4349 327 82.4349H324.69V74.6349H327C329.5 74.6249 331.09 76.3449 331.09 78.5449ZM346.03 74.6249H349.34V73.5949H341.59V74.6249H344.9V83.4449H346.03V74.6249ZM361.81 78.5149C361.81 75.7849 359.79 73.4349 356.79 73.4349C353.79 73.4349 351.75 75.8149 351.75 78.5449C351.75 81.2749 353.76 83.6249 356.77 83.6249C359.76 83.6249 361.81 81.2449 361.81 78.5149ZM360.65 78.5449C360.65 80.7949 359.04 82.5949 356.79 82.5949C354.54 82.5949 352.9 80.7649 352.9 78.5149C352.9 76.2649 354.51 74.465 356.76 74.465C359.02 74.455 360.65 76.2849 360.65 78.5449ZM376.22 73.6049H372.02V83.4549H376.4C378.56 83.4549 379.98 82.4549 379.98 80.7549C379.98 79.3849 379.04 78.7149 377.87 78.3649C378.64 78.0249 379.43 77.365 379.43 76.075C379.43 74.555 378.16 73.6049 376.22 73.6049ZM376.03 77.9949H373.11V74.6049H376.11C377.52 74.6049 378.29 75.2349 378.29 76.2249C378.3 77.3849 377.37 77.9949 376.03 77.9949ZM376.43 82.4549H373.12V78.9749H376.23C377.95 78.9749 378.85 79.5949 378.85 80.6749C378.85 81.7949 377.92 82.4549 376.43 82.4549ZM390.75 73.6049H383.62V83.4549H390.82V82.4449H384.73V78.9949H390.11V77.9849H384.73V74.6249H390.75V73.6049Z" fill="white"/>
<path fill-rule="evenodd" clip-rule="evenodd" d="M2.17994 67.085V114.125C1.40994 114.125 0.189941 113.725 0.189941 112.495V68.715C0.189941 67.485 1.40994 67.085 2.17994 67.085Z" fill="white"/>
<path fill-rule="evenodd" clip-rule="evenodd" d="M407.32 67.085V114.125C408.09 114.125 409.31 113.725 409.31 112.495V68.715C409.31 67.485 408.09 67.085 407.32 67.085Z" fill="white"/>
</svg>
