<?xml version="1.0" encoding="utf-8"?>
<!-- Generator: Adobe Illustrator 27.8.0, SVG Export Plug-In . SVG Version: 6.00 Build 0)  -->
<svg version="1.1" id="Layer_1" xmlns="http://www.w3.org/2000/svg" xmlns:xlink="http://www.w3.org/1999/xlink" x="0px" y="0px"
	 viewBox="0 0 645 264" style="enable-background:new 0 0 645 264;" xml:space="preserve">
<style type="text/css">
	.st0{fill:#485156;}
	.st1{fill-rule:evenodd;clip-rule:evenodd;fill:#73CEE1;}
	.st2{fill-rule:evenodd;clip-rule:evenodd;fill:#00B9F2;}
	.st3{fill-rule:evenodd;clip-rule:evenodd;fill:#006BB6;}
	.st4{fill-rule:evenodd;clip-rule:evenodd;fill:#0067B3;}
</style>
<g>
	<polygon class="st0" points="373.58,60.09 363.91,60.09 358.99,79.97 352.91,60.09 346.35,60.09 340.27,79.97 335.36,60.09 
		325.68,60.09 336.04,97.74 343.55,97.74 349.63,79.18 355.71,97.74 363.27,97.74 373.58,60.09 	"/>
	<path class="st0" d="M404.41,78.91c0-2.47-0.03-4.35-0.08-5.66c-0.05-1.3-0.18-2.54-0.4-3.7c-0.21-1.16-0.55-2.21-1.03-3.15
		c-0.48-0.93-1.15-1.84-2.04-2.72c-2.61-2.61-5.82-3.91-9.62-3.91c-3.81,0-7.01,1.3-9.62,3.91c-0.88,0.88-1.56,1.79-2.04,2.72
		c-0.47,0.93-0.82,1.98-1.03,3.12c-0.21,1.15-0.34,2.38-0.4,3.7c-0.05,1.32-0.08,3.22-0.08,5.68c0,2.47,0.03,4.35,0.08,5.66
		c0.05,1.3,0.18,2.54,0.4,3.7c0.21,1.16,0.56,2.21,1.03,3.15c0.48,0.93,1.16,1.84,2.04,2.72c2.61,2.61,5.82,3.91,9.62,3.91
		c3.81,0,7.02-1.3,9.62-3.91c0.88-0.88,1.56-1.8,2.04-2.75c0.48-0.95,0.82-2,1.03-3.14c0.21-1.15,0.34-2.37,0.4-3.67
		C404.39,83.27,404.41,81.38,404.41,78.91L404.41,78.91z M400.4,78.91c0,2.15-0.03,3.89-0.08,5.21c-0.05,1.32-0.17,2.43-0.34,3.33
		c-0.18,0.9-0.44,1.69-0.79,2.38c-0.35,0.69-0.83,1.33-1.43,1.93c-0.81,0.85-1.79,1.51-2.93,1.98c-1.15,0.48-2.34,0.71-3.57,0.71
		c-1.23,0-2.41-0.24-3.54-0.71c-1.13-0.48-2.12-1.14-2.96-1.98c-0.6-0.63-1.07-1.29-1.43-1.96c-0.35-0.67-0.62-1.46-0.79-2.38
		c-0.18-0.92-0.29-2.03-0.34-3.33c-0.05-1.3-0.08-3.03-0.08-5.18c0-2.19,0.03-3.93,0.08-5.23c0.05-1.3,0.17-2.41,0.34-3.3
		c0.18-0.9,0.44-1.69,0.79-2.38c0.35-0.69,0.83-1.33,1.43-1.93c0.85-0.85,1.83-1.51,2.96-1.98c1.13-0.48,2.31-0.71,3.54-0.71
		c1.23,0,2.42,0.24,3.57,0.71c1.14,0.48,2.12,1.14,2.93,1.98c0.6,0.63,1.08,1.29,1.43,1.96c0.35,0.67,0.62,1.46,0.79,2.38
		c0.18,0.92,0.29,2.02,0.34,3.3C400.37,74.99,400.4,76.73,400.4,78.91L400.4,78.91z"/>
	<polygon class="st0" points="446.67,97.74 446.67,60.09 442.65,60.09 430.7,86.79 418.44,60.09 414.42,60.09 414.42,97.74 
		418.44,97.74 418.44,69.13 428.91,91.81 432.34,91.81 442.65,69.13 442.65,97.74 446.67,97.74 	"/>
	<polygon class="st0" points="481.47,97.74 481.47,94.14 462.12,94.14 462.12,80.55 478.62,80.55 478.62,76.96 462.12,76.96 
		462.12,63.69 481.47,63.69 481.47,60.09 458.1,60.09 458.1,97.74 481.47,97.74 	"/>
	<polygon class="st0" points="518.18,97.74 518.18,60.09 514.16,60.09 514.16,90.17 506.12,78.07 494.17,60.09 490.37,60.09 
		490.37,97.74 494.39,97.74 494.39,67.55 502.21,79.39 514.37,97.74 518.18,97.74 	"/>
	<polygon class="st0" points="360.86,154.35 360.86,146.11 344.52,146.11 344.52,139.5 358.48,139.5 358.48,131.25 344.52,131.25 
		344.52,124.96 360.86,124.96 360.86,116.71 335.27,116.71 335.27,154.35 360.86,154.35 	"/>
	<polygon class="st0" points="393.98,154.35 382.35,135.05 393.18,116.71 388.53,116.71 380.18,131.56 371.82,116.71 367.17,116.71 
		377.96,135.05 366.43,154.35 370.98,154.35 380.18,138.54 389.32,154.35 393.98,154.35 	"/>
	<path class="st0" d="M426.76,143.46h-4.02c-0.49,2.33-1.54,4.18-3.15,5.55c-1.6,1.38-3.57,2.06-5.89,2.06
		c-1.23,0-2.42-0.23-3.57-0.69c-1.15-0.46-2.12-1.11-2.94-1.96c-0.6-0.64-1.07-1.29-1.43-1.96c-0.35-0.67-0.62-1.47-0.79-2.41
		c-0.18-0.93-0.29-2.04-0.34-3.33c-0.05-1.29-0.08-3.02-0.08-5.21c0-2.19,0.03-3.93,0.08-5.23c0.05-1.3,0.17-2.41,0.34-3.33
		c0.18-0.92,0.44-1.72,0.79-2.41c0.35-0.69,0.83-1.33,1.43-1.93c0.81-0.85,1.79-1.5,2.94-1.96c1.14-0.46,2.33-0.69,3.57-0.69
		c2.33,0,4.27,0.68,5.84,2.04c1.57,1.36,2.6,3.22,3.09,5.58h4.13c-0.64-3.53-2.12-6.27-4.44-8.25c-2.33-1.98-5.2-2.96-8.62-2.96
		c-1.83,0-3.58,0.33-5.24,1c-1.66,0.67-3.12,1.64-4.39,2.91c-0.88,0.88-1.56,1.79-2.04,2.72c-0.48,0.93-0.82,1.98-1.03,3.12
		c-0.21,1.14-0.34,2.38-0.4,3.7c-0.05,1.32-0.08,3.22-0.08,5.68c0,2.47,0.03,4.35,0.08,5.66c0.05,1.3,0.18,2.54,0.4,3.7
		c0.21,1.16,0.56,2.21,1.03,3.15c0.48,0.93,1.15,1.84,2.04,2.72c1.27,1.27,2.73,2.24,4.39,2.91c1.66,0.67,3.4,1,5.24,1
		c3.38,0,6.26-1,8.62-2.99C424.68,149.69,426.16,146.95,426.76,143.46L426.76,143.46z"/>
	<polygon class="st0" points="461.29,154.35 461.29,150.76 441.94,150.76 441.94,137.17 458.44,137.17 458.44,133.57 441.94,133.57 
		441.94,120.3 461.29,120.3 461.29,116.71 437.92,116.71 437.92,154.35 461.29,154.35 	"/>
	<polygon class="st0" points="495.19,154.35 495.19,150.76 475.94,150.76 475.94,116.71 471.93,116.71 471.93,154.35 495.19,154.35 
			"/>
	<path class="st0" d="M542.03,135.53c0-2.47-0.03-4.35-0.08-5.66c-0.05-1.3-0.19-2.54-0.4-3.7c-0.21-1.16-0.56-2.21-1.03-3.15
		c-0.48-0.93-1.15-1.84-2.03-2.72c-2.61-2.61-5.82-3.91-9.62-3.91c-3.81,0-7.01,1.3-9.62,3.91c-0.88,0.88-1.56,1.79-2.04,2.72
		c-0.47,0.93-0.82,1.98-1.03,3.12c-0.21,1.14-0.34,2.38-0.4,3.7c-0.05,1.32-0.08,3.22-0.08,5.68c0,2.47,0.03,4.35,0.08,5.66
		c0.05,1.3,0.19,2.54,0.4,3.7c0.21,1.16,0.56,2.21,1.03,3.15c0.48,0.93,1.16,1.84,2.04,2.72c2.61,2.61,5.82,3.91,9.62,3.91
		c3.81,0,7.02-1.3,9.62-3.91c0.88-0.88,1.56-1.8,2.03-2.75c0.48-0.95,0.82-2,1.03-3.15c0.21-1.14,0.34-2.37,0.4-3.67
		C542.01,139.88,542.03,138,542.03,135.53L542.03,135.53z M538.02,135.53c0,2.15-0.03,3.89-0.08,5.21
		c-0.05,1.32-0.17,2.43-0.34,3.33c-0.18,0.9-0.44,1.69-0.79,2.38c-0.35,0.69-0.83,1.33-1.43,1.93c-0.81,0.85-1.79,1.51-2.93,1.98
		c-1.15,0.48-2.34,0.71-3.57,0.71s-2.41-0.24-3.54-0.71c-1.13-0.48-2.12-1.14-2.96-1.98c-0.6-0.63-1.07-1.29-1.43-1.96
		c-0.35-0.67-0.62-1.46-0.79-2.38c-0.18-0.92-0.29-2.03-0.34-3.33c-0.05-1.3-0.08-3.03-0.08-5.18c0-2.19,0.03-3.93,0.08-5.23
		c0.05-1.3,0.17-2.41,0.34-3.3c0.18-0.9,0.44-1.69,0.79-2.38c0.35-0.69,0.83-1.33,1.43-1.93c0.85-0.85,1.83-1.51,2.96-1.98
		c1.13-0.48,2.31-0.71,3.54-0.71s2.42,0.24,3.57,0.71c1.14,0.48,2.12,1.14,2.93,1.98c0.6,0.63,1.07,1.29,1.43,1.96
		c0.35,0.67,0.62,1.46,0.79,2.38c0.18,0.92,0.29,2.02,0.34,3.31C537.99,131.61,538.02,133.34,538.02,135.53L538.02,135.53z"/>
	<polygon class="st0" points="580.17,154.35 580.17,116.71 576.15,116.71 576.15,146.79 568.12,134.68 556.17,116.71 552.36,116.71 
		552.36,154.35 556.38,154.35 556.38,124.16 564.2,136.01 576.36,154.35 580.17,154.35 	"/>
	<path class="st0" d="M363.39,201.47c0-1.23-0.16-2.32-0.48-3.25c-0.32-0.93-0.71-1.72-1.19-2.35c-0.48-0.64-0.95-1.14-1.43-1.51
		c-0.48-0.37-1-0.73-1.56-1.08c0.99-0.67,1.92-1.61,2.8-2.83c0.88-1.22,1.32-2.76,1.32-4.63c0-3.31-1.04-5.96-3.12-7.93
		c-2.08-1.97-5.04-2.96-8.88-2.96h-15.6v37.64h16.39c3.45,0,6.27-0.98,8.46-2.93C362.3,207.68,363.39,204.96,363.39,201.47
		L363.39,201.47z M353.61,186.29c0,0.85-0.26,1.57-0.79,2.17c-0.53,0.6-1.37,0.9-2.54,0.9h-5.76v-6.13h5.76
		c1.16,0,2.01,0.3,2.54,0.9C353.35,184.73,353.61,185.45,353.61,186.29L353.61,186.29z M354.14,200.94c0,0.92-0.27,1.7-0.82,2.35
		c-0.55,0.65-1.4,0.98-2.56,0.98h-6.24v-6.61h6.24c1.16,0,2.02,0.32,2.56,0.95C353.87,199.25,354.14,200.02,354.14,200.94
		L354.14,200.94z"/>
	<path class="st0" d="M398.52,193.75c0-2.47-0.03-4.35-0.08-5.66c-0.05-1.3-0.19-2.54-0.4-3.7c-0.21-1.16-0.56-2.21-1.03-3.15
		c-0.48-0.93-1.15-1.84-2.04-2.72c-2.61-2.61-5.82-3.91-9.62-3.91c-3.81,0-7.02,1.3-9.62,3.91c-0.88,0.88-1.56,1.79-2.03,2.72
		c-0.48,0.93-0.82,1.97-1.03,3.12c-0.21,1.14-0.34,2.38-0.4,3.7c-0.05,1.32-0.08,3.22-0.08,5.68c0,2.47,0.03,4.35,0.08,5.66
		c0.05,1.3,0.19,2.54,0.4,3.7c0.21,1.16,0.56,2.21,1.03,3.15c0.48,0.93,1.15,1.84,2.03,2.72c2.61,2.61,5.82,3.91,9.62,3.91
		c3.81,0,7.01-1.3,9.62-3.91c0.88-0.88,1.56-1.8,2.04-2.75c0.48-0.95,0.82-2,1.03-3.15c0.21-1.15,0.34-2.37,0.4-3.68
		C398.49,198.1,398.52,196.21,398.52,193.75L398.52,193.75z M394.5,193.75c0,2.15-0.03,3.89-0.08,5.21
		c-0.05,1.32-0.17,2.43-0.34,3.33c-0.18,0.9-0.44,1.69-0.79,2.38c-0.35,0.69-0.83,1.33-1.43,1.93c-0.81,0.85-1.79,1.51-2.93,1.98
		c-1.14,0.48-2.33,0.71-3.57,0.71s-2.41-0.24-3.54-0.71c-1.13-0.48-2.11-1.14-2.96-1.98c-0.6-0.64-1.07-1.29-1.43-1.96
		c-0.35-0.67-0.62-1.46-0.79-2.38c-0.18-0.92-0.29-2.03-0.34-3.33c-0.05-1.3-0.08-3.03-0.08-5.18c0-2.19,0.03-3.93,0.08-5.23
		c0.05-1.3,0.17-2.41,0.34-3.31c0.18-0.9,0.44-1.69,0.79-2.38c0.35-0.69,0.83-1.33,1.43-1.93c0.85-0.85,1.83-1.51,2.96-1.98
		c1.13-0.47,2.31-0.71,3.54-0.71s2.42,0.24,3.57,0.71c1.14,0.48,2.12,1.14,2.93,1.98c0.6,0.63,1.07,1.29,1.43,1.96
		c0.35,0.67,0.62,1.46,0.79,2.38c0.18,0.92,0.29,2.02,0.34,3.31C394.48,189.83,394.5,191.56,394.5,193.75L394.5,193.75z"/>
	<path class="st0" d="M436.13,212.57l-13.8-37.64h-3.38l-13.85,37.64h4.28l3.01-8.51h16.44l3.01,8.51H436.13L436.13,212.57z
		 M427.67,200.57h-14.06l7.09-19.88L427.67,200.57L427.67,200.57z"/>
	<path class="st0" d="M471,212.57l-8.93-17.08c2.5-0.53,4.49-1.67,5.97-3.44c1.48-1.76,2.22-3.98,2.22-6.66
		c0-3.21-1.03-5.75-3.09-7.64c-2.06-1.89-4.75-2.83-8.06-2.83h-14.44v37.64h4.02v-16.71h9.04l8.56,16.71H471L471,212.57z
		 M466.24,185.45c0,2.22-0.69,3.92-2.06,5.1c-1.37,1.18-3.19,1.77-5.45,1.77h-10.05v-13.8h10.05c2.26,0,4.07,0.6,5.45,1.8
		C465.55,181.52,466.24,183.23,466.24,185.45L466.24,185.45z"/>
	<path class="st0" d="M507.92,193.33c0-3.88-0.21-6.93-0.63-9.17c-0.42-2.24-1.45-4.15-3.07-5.74c-2.33-2.33-5.5-3.49-9.52-3.49
		h-12.9v37.64h12.9c4.02,0,7.19-1.16,9.52-3.49c1.59-1.59,2.6-3.6,3.04-6.03C507.7,200.62,507.92,197.38,507.92,193.33
		L507.92,193.33z M503.9,193.33c0,3.42-0.15,6.14-0.45,8.17c-0.3,2.03-0.98,3.6-2.04,4.73c-0.95,0.95-2.04,1.65-3.28,2.09
		c-1.23,0.44-2.61,0.66-4.12,0.66h-8.2v-30.45h8.2c1.51,0,2.89,0.21,4.12,0.63c1.23,0.42,2.33,1.13,3.28,2.11
		c1.09,1.13,1.78,2.6,2.06,4.42C503.76,187.5,503.9,190.05,503.9,193.33L503.9,193.33z"/>
	<path class="st0" d="M542.52,202.21c0-3.17-1.06-5.66-3.17-7.46c-0.81-0.7-1.73-1.26-2.75-1.66c-1.02-0.41-2.4-0.73-4.13-0.98
		l-2.01-0.32l-2.11-0.32c-0.99-0.18-1.94-0.44-2.85-0.79c-0.92-0.35-1.66-0.78-2.22-1.27c-1.13-0.99-1.69-2.43-1.69-4.34
		c0-2.12,0.7-3.81,2.11-5.08c1.41-1.27,3.35-1.9,5.82-1.9c1.94,0,3.59,0.26,4.94,0.79c1.36,0.53,2.63,1.34,3.83,2.43l2.59-2.59
		c-1.62-1.48-3.3-2.54-5.02-3.17c-1.73-0.63-3.79-0.95-6.19-0.95c-3.7,0-6.63,0.96-8.8,2.88c-2.17,1.92-3.25,4.5-3.25,7.74
		c0,3,0.95,5.34,2.86,7.03c1.62,1.41,3.93,2.36,6.93,2.85l2.17,0.32l2.22,0.37c1.41,0.21,2.43,0.43,3.07,0.66
		c0.63,0.23,1.25,0.61,1.85,1.14c1.2,1.06,1.8,2.62,1.8,4.71c0,2.18-0.79,3.89-2.38,5.13c-1.59,1.23-3.75,1.85-6.5,1.85
		c-2.15,0-4.02-0.31-5.6-0.93c-1.59-0.62-3.14-1.68-4.65-3.2l-2.75,2.75c1.76,1.76,3.65,3.03,5.66,3.81
		c2.01,0.78,4.42,1.16,7.24,1.16c3.95,0,7.1-0.96,9.46-2.88C541.34,208.09,542.52,205.49,542.52,202.21L542.52,202.21z"/>
	<path class="st1" d="M161.66,146.25c15.15,26.24,12.36,57.92-4.57,80.83l-12.2-7.04c14.58-18.66,17.24-45.03,4.67-66.8
		c-2.57-4.45-5.63-8.45-9.06-11.96c3.77-2.69,7.3-5.77,10.55-9.2C155.06,136.27,158.64,141,161.66,146.25L161.66,146.25z
		 M129.02,132.13c-7.01-4.29-14.82-7.08-22.9-8.23c7-1.42,13.63-4.55,19.23-9.21c5.31,2.14,10.38,4.89,15.11,8.24
		C137,126.5,133.15,129.58,129.02,132.13L129.02,132.13z"/>
	<path class="st1" d="M135.42,161.4c9.55,16.53,7.01,36.72-4.86,50.36l-12.25-7.07c9.7-9.26,12.21-24.28,5.2-36.41
		c-4-6.92-10.35-11.63-17.46-13.7c6.66-0.78,13.18-2.46,19.38-4.99C129.34,152.81,132.74,156.76,135.42,161.4L135.42,161.4z"/>
	<path class="st2" d="M161.43,118.16c-15.15,26.24-43.98,39.66-72.29,36.46v-14.09c23.45,3.29,47.62-7.59,60.19-29.36
		c2.57-4.45,4.5-9.1,5.83-13.83c4.22,1.91,8.65,3.44,13.24,4.54C166.77,107.45,164.45,112.92,161.43,118.16L161.43,118.16z
		 M157.33,82.83c0.21-8.21-1.28-16.37-4.32-23.94c4.73,5.35,10.76,9.53,17.59,12.05c0.8,5.67,0.95,11.44,0.42,17.2
		C166.19,86.93,161.6,85.13,157.33,82.83L157.33,82.83z"/>
	<path class="st2" d="M135.18,103.01c-9.55,16.53-28.3,24.43-46.04,20.97v-14.14c12.87,3.77,27.13-1.56,34.14-13.7
		c3.99-6.92,4.9-14.78,3.13-21.97c4.01,5.37,8.72,10.18,14.02,14.29C139.58,93.44,137.86,98.37,135.18,103.01L135.18,103.01z"/>
	<path class="st3" d="M185.63,103.91c-30.31,0-56.34-18.26-67.72-44.38l12.2-7.04c8.87,21.95,30.38,37.44,55.52,37.44
		c5.14,0,10.13-0.65,14.89-1.87c0.45,4.61,1.34,9.21,2.69,13.74C197.57,103.18,191.69,103.91,185.63,103.91L185.63,103.91z
		 M214.18,82.7c7.22-3.93,13.54-9.29,18.58-15.71c-2.27,6.77-2.88,14.08-1.64,21.25c-4.5,3.53-9.43,6.54-14.69,8.96
		C215.06,92.42,214.32,87.55,214.18,82.7L214.18,82.7z"/>
	<path class="st3" d="M185.63,73.61c-19.09,0-35.31-12.29-41.18-29.39l12.25-7.07c3.17,13.04,14.92,22.71,28.93,22.71
		c7.99,0,15.24-3.15,20.59-8.27c-2.65,6.16-4.46,12.65-5.37,19.28C196.12,72.64,190.99,73.61,185.63,73.61L185.63,73.61z"/>
	<path class="st1" d="M210.07,117.75c-15.15-26.25-12.36-57.92,4.57-80.83l12.2,7.04c-14.58,18.66-17.24,45.03-4.67,66.8
		c2.57,4.45,5.63,8.45,9.06,11.96c-3.77,2.69-7.3,5.77-10.55,9.2C216.68,127.73,213.1,123,210.07,117.75L210.07,117.75z
		 M242.72,131.87c7.01,4.29,14.82,7.08,22.9,8.23c-7,1.42-13.63,4.55-19.23,9.21c-5.31-2.14-10.38-4.89-15.11-8.24
		C234.74,137.5,238.59,134.42,242.72,131.87L242.72,131.87z"/>
	<path class="st1" d="M236.32,102.6c-9.55-16.53-7.01-36.72,4.86-50.36l12.25,7.07c-9.7,9.26-12.21,24.28-5.2,36.41
		c4,6.92,10.35,11.63,17.46,13.7c-6.66,0.78-13.18,2.46-19.38,4.99C242.4,111.19,239,107.24,236.32,102.6L236.32,102.6z"/>
	<path class="st3" d="M185.81,122.25c5.49,0,9.94,4.45,9.94,9.94c0,5.49-4.45,9.94-9.94,9.94c-5.49,0-9.94-4.45-9.94-9.94
		C175.87,126.7,180.32,122.25,185.81,122.25L185.81,122.25z"/>
	<path class="st3" d="M242.08,220.62c4.79,0,8.67,3.88,8.67,8.67s-3.88,8.67-8.67,8.67c-4.79,0-8.67-3.88-8.67-8.67
		S237.29,220.62,242.08,220.62L242.08,220.62z"/>
	<path class="st2" d="M210.31,145.84c15.15-26.25,43.98-39.66,72.29-36.46v14.09c-23.45-3.29-47.62,7.59-60.19,29.36
		c-2.57,4.45-4.5,9.1-5.83,13.83c-4.22-1.91-8.65-3.44-13.24-4.54C204.97,156.55,207.28,151.08,210.31,145.84L210.31,145.84z
		 M214.41,181.17c-0.21,8.21,1.28,16.37,4.32,23.94c-4.73-5.35-10.76-9.53-17.59-12.05c-0.8-5.67-0.95-11.44-0.42-17.2
		C205.54,177.07,210.13,178.87,214.41,181.17L214.41,181.17z"/>
	<path class="st2" d="M236.56,160.99c9.55-16.53,28.3-24.43,46.04-20.97v14.14c-12.87-3.77-27.13,1.57-34.14,13.7
		c-3.99,6.92-4.9,14.78-3.13,21.97c-4.01-5.37-8.72-10.18-14.02-14.29C232.15,170.56,233.88,165.63,236.56,160.99L236.56,160.99z"/>
	<path class="st3" d="M186.11,160.09c30.31,0,56.34,18.26,67.72,44.38l-12.2,7.05c-8.87-21.95-30.38-37.44-55.52-37.44
		c-5.14,0-10.13,0.65-14.89,1.87c-0.45-4.61-1.34-9.21-2.69-13.74C174.16,160.82,180.05,160.09,186.11,160.09L186.11,160.09z
		 M157.56,181.3c-7.22,3.93-13.54,9.29-18.58,15.71c2.27-6.77,2.88-14.08,1.64-21.25c4.51-3.53,9.43-6.54,14.69-8.96
		C156.67,171.58,157.41,176.45,157.56,181.3L157.56,181.3z"/>
	<path class="st3" d="M186.11,190.39c19.09,0,35.31,12.29,41.18,29.39l-12.25,7.07c-3.17-13.04-14.92-22.71-28.93-22.71
		c-7.99,0-15.24,3.15-20.59,8.27c2.65-6.16,4.46-12.65,5.37-19.28C175.62,191.36,180.75,190.39,186.11,190.39L186.11,190.39z
		 M157.13,227.03l-0.01,0.06l-0.02-0.01L157.13,227.03L157.13,227.03z"/>
	<path class="st3" d="M290.72,127.63c2.39-4.15,7.7-5.57,11.85-3.17c4.15,2.39,5.57,7.7,3.17,11.85c-2.39,4.15-7.7,5.57-11.85,3.17
		C289.75,137.08,288.33,131.78,290.72,127.63L290.72,127.63z"/>
	<path class="st3" d="M234.51,39.01c-2.39-4.15-0.97-9.45,3.17-11.85c4.15-2.4,9.45-0.97,11.85,3.17c2.39,4.15,0.97,9.45-3.17,11.85
		C242.21,44.58,236.91,43.16,234.51,39.01L234.51,39.01z"/>
	<path class="st3" d="M129.66,43.38c-4.79,0-8.67-3.88-8.67-8.67c0-4.79,3.88-8.67,8.67-8.67c4.79,0,8.67,3.88,8.67,8.67
		C138.33,39.5,134.45,43.38,129.66,43.38L129.66,43.38z"/>
	<path class="st3" d="M81.01,136.37c-2.39,4.15-7.7,5.57-11.85,3.17c-4.15-2.4-5.57-7.7-3.17-11.85c2.39-4.15,7.7-5.57,11.85-3.17
		C81.99,126.92,83.41,132.22,81.01,136.37L81.01,136.37z"/>
	<path class="st3" d="M137.22,224.99c2.39,4.15,0.97,9.45-3.17,11.85c-4.15,2.39-9.45,0.97-11.85-3.17
		c-2.39-4.15-0.97-9.45,3.17-11.85C129.53,219.42,134.83,220.84,137.22,224.99L137.22,224.99z"/>
</g>
</svg>
