<svg width="516" height="212" viewBox="0 0 516 212" fill="none" xmlns="http://www.w3.org/2000/svg">
<path d="M308.83 34.095H299.16L294.24 53.975L288.16 34.095H281.6L275.52 53.975L270.61 34.095H260.93L271.29 71.745H278.8L284.88 53.185L290.96 71.745H298.52L308.83 34.095Z" fill="white"/>
<path d="M339.66 52.915C339.66 50.445 339.63 48.565 339.58 47.255C339.53 45.955 339.4 44.715 339.18 43.555C338.97 42.395 338.63 41.345 338.15 40.405C337.67 39.475 337 38.565 336.11 37.685C333.5 35.075 330.29 33.775 326.49 33.775C322.68 33.775 319.48 35.075 316.87 37.685C315.99 38.565 315.31 39.475 314.83 40.405C314.36 41.335 314.01 42.385 313.8 43.525C313.59 44.675 313.46 45.905 313.4 47.225C313.35 48.545 313.32 50.445 313.32 52.905C313.32 55.375 313.35 57.255 313.4 58.565C313.45 59.865 313.58 61.105 313.8 62.265C314.01 63.425 314.36 64.475 314.83 65.415C315.31 66.345 315.99 67.255 316.87 68.135C319.48 70.745 322.69 72.045 326.49 72.045C330.3 72.045 333.51 70.745 336.11 68.135C336.99 67.255 337.67 66.335 338.15 65.385C338.63 64.435 338.97 63.385 339.18 62.245C339.39 61.095 339.52 59.875 339.58 58.575C339.64 57.275 339.66 55.385 339.66 52.915ZM335.65 52.915C335.65 55.065 335.62 56.805 335.57 58.125C335.52 59.445 335.4 60.555 335.23 61.455C335.05 62.355 334.79 63.145 334.44 63.835C334.09 64.525 333.61 65.165 333.01 65.765C332.2 66.615 331.22 67.275 330.08 67.745C328.93 68.225 327.74 68.455 326.51 68.455C325.28 68.455 324.1 68.215 322.97 67.745C321.84 67.265 320.85 66.605 320.01 65.765C319.41 65.135 318.94 64.475 318.58 63.805C318.23 63.135 317.96 62.345 317.79 61.425C317.61 60.505 317.5 59.395 317.45 58.095C317.4 56.795 317.37 55.065 317.37 52.915C317.37 50.725 317.4 48.985 317.45 47.685C317.5 46.385 317.62 45.275 317.79 44.385C317.97 43.485 318.23 42.695 318.58 42.005C318.93 41.315 319.41 40.675 320.01 40.075C320.86 39.225 321.84 38.565 322.97 38.095C324.1 37.615 325.28 37.385 326.51 37.385C327.74 37.385 328.93 37.625 330.08 38.095C331.22 38.575 332.2 39.235 333.01 40.075C333.61 40.705 334.09 41.365 334.44 42.035C334.79 42.705 335.06 43.495 335.23 44.415C335.41 45.335 335.52 46.435 335.57 47.715C335.62 48.995 335.65 50.735 335.65 52.915Z" fill="white"/>
<path d="M381.92 71.745V34.095H377.9L365.95 60.795L353.69 34.095H349.67V71.745H353.69V43.135L364.16 65.815H367.59L377.9 43.135V71.745H381.92Z" fill="white"/>
<path d="M416.72 71.745V68.145H397.37V54.555H413.87V50.965H397.37V37.695H416.72V34.095H393.35V71.745H416.72Z" fill="white"/>
<path d="M453.43 71.745V34.095H449.41V64.175L441.37 52.075L429.42 34.095H425.62V71.745H429.64V41.555L437.46 53.395L449.62 71.745H453.43Z" fill="white"/>
<path d="M296.11 128.355V120.115H279.77V113.505H293.73V105.255H279.77V98.965H296.11V90.715H270.52V128.355H296.11Z" fill="white"/>
<path d="M329.23 128.355L317.6 109.055L328.43 90.715H323.78L315.43 105.565L307.07 90.715H302.42L313.21 109.055L301.68 128.355H306.23L315.43 112.545L324.57 128.355H329.23Z" fill="white"/>
<path d="M362.01 117.465H357.99C357.5 119.795 356.45 121.645 354.84 123.015C353.24 124.395 351.27 125.075 348.95 125.075C347.72 125.075 346.53 124.845 345.38 124.385C344.23 123.925 343.26 123.275 342.44 122.425C341.84 121.785 341.37 121.135 341.01 120.465C340.66 119.795 340.39 118.995 340.22 118.055C340.04 117.125 339.93 116.015 339.88 114.725C339.83 113.435 339.8 111.705 339.8 109.515C339.8 107.325 339.83 105.585 339.88 104.285C339.93 102.985 340.05 101.875 340.22 100.955C340.4 100.035 340.66 99.235 341.01 98.545C341.36 97.855 341.84 97.215 342.44 96.615C343.25 95.765 344.23 95.115 345.38 94.655C346.52 94.195 347.71 93.965 348.95 93.965C351.28 93.965 353.22 94.645 354.79 96.005C356.36 97.365 357.39 99.225 357.88 101.585H362.01C361.37 98.055 359.89 95.315 357.57 93.335C355.24 91.355 352.37 90.375 348.95 90.375C347.12 90.375 345.37 90.705 343.71 91.375C342.05 92.045 340.59 93.015 339.32 94.285C338.44 95.165 337.76 96.075 337.28 97.005C336.8 97.935 336.46 98.985 336.25 100.125C336.04 101.265 335.91 102.505 335.85 103.825C335.8 105.145 335.77 107.045 335.77 109.505C335.77 111.975 335.8 113.855 335.85 115.165C335.9 116.465 336.03 117.705 336.25 118.865C336.46 120.025 336.81 121.075 337.28 122.015C337.76 122.945 338.43 123.855 339.32 124.735C340.59 126.005 342.05 126.975 343.71 127.645C345.37 128.315 347.11 128.645 348.95 128.645C352.33 128.645 355.21 127.645 357.57 125.655C359.93 123.695 361.41 120.955 362.01 117.465Z" fill="white"/>
<path d="M396.54 128.355V124.765H377.19V111.175H393.69V107.575H377.19V94.305H396.54V90.715H373.17V128.355H396.54Z" fill="white"/>
<path d="M430.44 128.355V124.765H411.19V90.715H407.18V128.355H430.44Z" fill="white"/>
<path d="M477.28 109.535C477.28 107.065 477.25 105.185 477.2 103.875C477.15 102.575 477.01 101.335 476.8 100.175C476.59 99.015 476.24 97.965 475.77 97.025C475.29 96.095 474.62 95.185 473.74 94.305C471.13 91.695 467.92 90.395 464.12 90.395C460.31 90.395 457.11 91.695 454.5 94.305C453.62 95.185 452.94 96.095 452.46 97.025C451.99 97.955 451.64 99.005 451.43 100.145C451.22 101.285 451.09 102.525 451.03 103.845C450.98 105.165 450.95 107.065 450.95 109.525C450.95 111.995 450.98 113.875 451.03 115.185C451.08 116.485 451.22 117.725 451.43 118.885C451.64 120.045 451.99 121.095 452.46 122.035C452.94 122.965 453.62 123.875 454.5 124.755C457.11 127.365 460.32 128.665 464.12 128.665C467.93 128.665 471.14 127.365 473.74 124.755C474.62 123.875 475.3 122.955 475.77 122.005C476.25 121.055 476.59 120.005 476.8 118.855C477.01 117.715 477.14 116.485 477.2 115.185C477.26 113.885 477.28 112.005 477.28 109.535ZM473.27 109.535C473.27 111.685 473.24 113.425 473.19 114.745C473.14 116.065 473.02 117.175 472.85 118.075C472.67 118.975 472.41 119.765 472.06 120.455C471.71 121.145 471.23 121.785 470.63 122.385C469.82 123.235 468.84 123.895 467.7 124.365C466.55 124.845 465.36 125.075 464.13 125.075C462.9 125.075 461.72 124.835 460.59 124.365C459.46 123.885 458.47 123.225 457.63 122.385C457.03 121.755 456.56 121.095 456.2 120.425C455.85 119.755 455.58 118.965 455.41 118.045C455.23 117.125 455.12 116.015 455.07 114.715C455.02 113.415 454.99 111.685 454.99 109.535C454.99 107.345 455.02 105.605 455.07 104.305C455.12 103.005 455.24 101.895 455.41 101.005C455.59 100.105 455.85 99.315 456.2 98.625C456.55 97.935 457.03 97.295 457.63 96.695C458.48 95.845 459.46 95.185 460.59 94.715C461.72 94.235 462.9 94.005 464.13 94.005C465.36 94.005 466.55 94.245 467.7 94.715C468.84 95.195 469.82 95.855 470.63 96.695C471.23 97.325 471.7 97.985 472.06 98.655C472.41 99.325 472.68 100.115 472.85 101.035C473.03 101.955 473.14 103.055 473.19 104.345C473.24 105.615 473.27 107.345 473.27 109.535Z" fill="white"/>
<path d="M515.42 128.355V90.715H511.4V120.795L503.37 108.685L491.42 90.715H487.61V128.355H491.63V98.165L499.45 110.015L511.61 128.355H515.42Z" fill="white"/>
<path d="M298.64 175.475C298.64 174.245 298.48 173.155 298.16 172.225C297.84 171.295 297.45 170.505 296.97 169.875C296.49 169.235 296.02 168.735 295.54 168.365C295.06 167.995 294.54 167.635 293.98 167.285C294.97 166.615 295.9 165.675 296.78 164.455C297.66 163.235 298.1 161.695 298.1 159.825C298.1 156.515 297.06 153.865 294.98 151.895C292.9 149.925 289.94 148.935 286.1 148.935H270.5V186.575H286.89C290.34 186.575 293.16 185.595 295.35 183.645C297.55 181.685 298.64 178.965 298.64 175.475ZM288.86 160.295C288.86 161.145 288.6 161.865 288.07 162.465C287.54 163.065 286.7 163.365 285.53 163.365H279.77V157.235H285.53C286.69 157.235 287.54 157.535 288.07 158.135C288.6 158.735 288.86 159.455 288.86 160.295ZM289.39 174.945C289.39 175.865 289.12 176.645 288.57 177.295C288.02 177.945 287.17 178.275 286.01 178.275H279.77V171.665H286.01C287.17 171.665 288.03 171.985 288.57 172.615C289.12 173.255 289.39 174.025 289.39 174.945Z" fill="white"/>
<path d="M333.77 167.755C333.77 165.285 333.74 163.405 333.69 162.095C333.64 160.795 333.5 159.555 333.29 158.395C333.08 157.235 332.73 156.185 332.26 155.245C331.78 154.315 331.11 153.405 330.22 152.525C327.61 149.915 324.4 148.615 320.6 148.615C316.79 148.615 313.58 149.915 310.98 152.525C310.1 153.405 309.42 154.315 308.95 155.245C308.47 156.175 308.13 157.215 307.92 158.365C307.71 159.505 307.58 160.745 307.52 162.065C307.47 163.385 307.44 165.285 307.44 167.745C307.44 170.215 307.47 172.095 307.52 173.405C307.57 174.705 307.71 175.945 307.92 177.105C308.13 178.265 308.48 179.315 308.95 180.255C309.43 181.185 310.1 182.095 310.98 182.975C313.59 185.585 316.8 186.885 320.6 186.885C324.41 186.885 327.61 185.585 330.22 182.975C331.1 182.095 331.78 181.175 332.26 180.225C332.74 179.275 333.08 178.225 333.29 177.075C333.5 175.925 333.63 174.705 333.69 173.395C333.74 172.105 333.77 170.215 333.77 167.755ZM329.75 167.755C329.75 169.905 329.72 171.645 329.67 172.965C329.62 174.285 329.5 175.395 329.33 176.295C329.15 177.195 328.89 177.985 328.54 178.675C328.19 179.365 327.71 180.005 327.11 180.605C326.3 181.455 325.32 182.115 324.18 182.585C323.04 183.065 321.85 183.295 320.61 183.295C319.37 183.295 318.2 183.055 317.07 182.585C315.94 182.105 314.96 181.445 314.11 180.605C313.51 179.965 313.04 179.315 312.68 178.645C312.33 177.975 312.06 177.185 311.89 176.265C311.71 175.345 311.6 174.235 311.55 172.935C311.5 171.635 311.47 169.905 311.47 167.755C311.47 165.565 311.5 163.825 311.55 162.525C311.6 161.225 311.72 160.115 311.89 159.215C312.07 158.315 312.33 157.525 312.68 156.835C313.03 156.145 313.51 155.505 314.11 154.905C314.96 154.055 315.94 153.395 317.07 152.925C318.2 152.455 319.38 152.215 320.61 152.215C321.84 152.215 323.03 152.455 324.18 152.925C325.32 153.405 326.3 154.065 327.11 154.905C327.71 155.535 328.18 156.195 328.54 156.865C328.89 157.535 329.16 158.325 329.33 159.245C329.51 160.165 329.62 161.265 329.67 162.555C329.73 163.835 329.75 165.565 329.75 167.755Z" fill="white"/>
<path d="M371.38 186.575L357.58 148.935H354.2L340.35 186.575H344.63L347.64 178.065H364.08L367.09 186.575H371.38ZM362.92 174.575H348.86L355.95 154.695L362.92 174.575Z" fill="white"/>
<path d="M406.25 186.575L397.32 169.495C399.82 168.965 401.81 167.825 403.29 166.055C404.77 164.295 405.51 162.075 405.51 159.395C405.51 156.185 404.48 153.645 402.42 151.755C400.36 149.865 397.67 148.925 394.36 148.925H379.92V186.565H383.94V169.855H392.98L401.54 186.565H406.25V186.575ZM401.49 159.455C401.49 161.675 400.8 163.375 399.43 164.555C398.06 165.735 396.24 166.325 393.98 166.325H383.93V152.525H393.98C396.24 152.525 398.05 153.125 399.43 154.325C400.8 155.525 401.49 157.235 401.49 159.455Z" fill="white"/>
<path d="M443.17 167.335C443.17 163.455 442.96 160.405 442.54 158.165C442.12 155.925 441.09 154.015 439.47 152.425C437.14 150.095 433.97 148.935 429.95 148.935H417.05V186.575H429.95C433.97 186.575 437.14 185.415 439.47 183.085C441.06 181.495 442.07 179.485 442.51 177.055C442.95 174.625 443.17 171.385 443.17 167.335ZM439.15 167.335C439.15 170.755 439 173.475 438.7 175.505C438.4 177.535 437.72 179.105 436.66 180.235C435.71 181.185 434.62 181.885 433.38 182.325C432.15 182.765 430.77 182.985 429.26 182.985H421.06V152.535H429.26C430.77 152.535 432.15 152.745 433.38 153.165C434.61 153.585 435.71 154.295 436.66 155.275C437.75 156.405 438.44 157.875 438.72 159.695C439.01 161.505 439.15 164.055 439.15 167.335Z" fill="white"/>
<path d="M477.77 176.215C477.77 173.045 476.71 170.555 474.6 168.755C473.79 168.055 472.87 167.495 471.85 167.095C470.83 166.685 469.45 166.365 467.72 166.115L465.71 165.795L463.6 165.475C462.61 165.295 461.66 165.035 460.75 164.685C459.83 164.335 459.09 163.905 458.53 163.415C457.4 162.425 456.84 160.985 456.84 159.075C456.84 156.955 457.54 155.265 458.95 153.995C460.36 152.725 462.3 152.095 464.77 152.095C466.71 152.095 468.36 152.355 469.71 152.885C471.07 153.415 472.34 154.225 473.54 155.315L476.13 152.725C474.51 151.245 472.83 150.185 471.11 149.555C469.38 148.925 467.32 148.605 464.92 148.605C461.22 148.605 458.29 149.565 456.12 151.485C453.95 153.405 452.87 155.985 452.87 159.225C452.87 162.225 453.82 164.565 455.73 166.255C457.35 167.665 459.66 168.615 462.66 169.105L464.83 169.425L467.05 169.795C468.46 170.005 469.48 170.225 470.12 170.455C470.75 170.685 471.37 171.065 471.97 171.595C473.17 172.655 473.77 174.215 473.77 176.305C473.77 178.485 472.98 180.195 471.39 181.435C469.8 182.665 467.64 183.285 464.89 183.285C462.74 183.285 460.87 182.975 459.29 182.355C457.7 181.735 456.15 180.675 454.64 179.155L451.89 181.905C453.65 183.665 455.54 184.935 457.55 185.715C459.56 186.495 461.97 186.875 464.79 186.875C468.74 186.875 471.89 185.915 474.25 183.995C476.59 182.095 477.77 179.495 477.77 176.215Z" fill="white"/>
<path fill-rule="evenodd" clip-rule="evenodd" d="M96.9099 120.255C112.06 146.495 109.27 178.175 92.3399 201.085L80.1399 194.045C94.7199 175.385 97.3799 149.015 84.8099 127.245C82.2399 122.795 79.1799 118.795 75.7499 115.285C79.5199 112.595 83.0499 109.515 86.2999 106.085C90.3099 110.275 93.8899 115.005 96.9099 120.255ZM64.2699 106.135C57.2599 101.845 49.4499 99.0549 41.3699 97.9049C48.3699 96.4849 54.9999 93.3549 60.5999 88.6949C65.9099 90.8349 70.9799 93.5849 75.7099 96.9349C72.2499 100.505 68.3999 103.585 64.2699 106.135Z" fill="#73CEE1"/>
<path fill-rule="evenodd" clip-rule="evenodd" d="M70.67 135.405C80.22 151.935 77.68 172.125 65.81 185.765L53.56 178.695C63.26 169.435 65.77 154.415 58.76 142.285C54.76 135.365 48.41 130.655 41.3 128.585C47.96 127.805 54.48 126.125 60.68 123.595C64.59 126.815 67.99 130.765 70.67 135.405Z" fill="#73CEE1"/>
<path fill-rule="evenodd" clip-rule="evenodd" d="M96.6799 92.165C81.5299 118.405 52.6999 131.825 24.3899 128.625V114.535C47.8399 117.825 72.0099 106.945 84.5799 85.175C87.1499 80.725 89.0799 76.075 90.4099 71.345C94.6299 73.255 99.0599 74.785 103.65 75.885C102.02 81.455 99.6999 86.925 96.6799 92.165ZM92.5799 56.835C92.7899 48.625 91.2999 40.465 88.2599 32.895C92.9899 38.245 99.0199 42.425 105.85 44.945C106.65 50.615 106.8 56.385 106.27 62.145C101.44 60.935 96.8499 59.135 92.5799 56.835Z" fill="#00B9F2"/>
<path fill-rule="evenodd" clip-rule="evenodd" d="M70.4299 77.0151C60.8799 93.5451 42.1299 101.445 24.3899 97.9851V83.845C37.2599 87.615 51.5199 82.2851 58.5299 70.1451C62.5199 63.225 63.4299 55.365 61.6599 48.175C65.6699 53.545 70.3799 58.355 75.6799 62.465C74.8299 67.445 73.1099 72.3751 70.4299 77.0151Z" fill="#00B9F2"/>
<path fill-rule="evenodd" clip-rule="evenodd" d="M120.88 77.915C90.5699 77.915 64.5399 59.655 53.1599 33.535L65.3599 26.495C74.2299 48.445 95.7399 63.935 120.88 63.935C126.02 63.935 131.01 63.285 135.77 62.065C136.22 66.675 137.11 71.275 138.46 75.805C132.82 77.185 126.94 77.915 120.88 77.915ZM149.43 56.705C156.65 52.775 162.97 47.415 168.01 40.995C165.74 47.765 165.13 55.075 166.37 62.245C161.87 65.775 156.94 68.785 151.68 71.205C150.31 66.425 149.57 61.555 149.43 56.705Z" fill="#006BB6"/>
<path fill-rule="evenodd" clip-rule="evenodd" d="M120.88 47.615C101.79 47.615 85.57 35.325 79.7 18.225L91.95 11.155C95.12 24.195 106.87 33.865 120.88 33.865C128.87 33.865 136.12 30.715 141.47 25.595C138.82 31.755 137.01 38.245 136.1 44.875C131.37 46.645 126.24 47.615 120.88 47.615Z" fill="#006BB6"/>
<path fill-rule="evenodd" clip-rule="evenodd" d="M145.32 91.7551C130.17 65.5051 132.96 33.835 149.89 10.925L162.09 17.965C147.51 36.625 144.85 62.9951 157.42 84.7651C159.99 89.2151 163.05 93.2151 166.48 96.7251C162.71 99.4151 159.18 102.495 155.93 105.925C151.93 101.735 148.35 97.0051 145.32 91.7551ZM177.97 105.875C184.98 110.165 192.79 112.955 200.87 114.105C193.87 115.525 187.24 118.655 181.64 123.315C176.33 121.175 171.26 118.425 166.53 115.075C169.99 111.505 173.84 108.425 177.97 105.875Z" fill="#73CEE1"/>
<path fill-rule="evenodd" clip-rule="evenodd" d="M171.57 76.605C162.02 60.075 164.56 39.885 176.43 26.245L188.68 33.315C178.98 42.575 176.47 57.595 183.48 69.725C187.48 76.645 193.83 81.355 200.94 83.425C194.28 84.205 187.76 85.885 181.56 88.415C177.65 85.195 174.25 81.245 171.57 76.605Z" fill="#73CEE1"/>
<path fill-rule="evenodd" clip-rule="evenodd" d="M121.06 96.255C126.55 96.255 131 100.705 131 106.195C131 111.685 126.55 116.135 121.06 116.135C115.57 116.135 111.12 111.685 111.12 106.195C111.12 100.705 115.57 96.255 121.06 96.255Z" fill="#006BB6"/>
<path fill-rule="evenodd" clip-rule="evenodd" d="M177.33 194.625C182.12 194.625 186 198.505 186 203.295C186 208.085 182.12 211.965 177.33 211.965C172.54 211.965 168.66 208.085 168.66 203.295C168.66 198.505 172.54 194.625 177.33 194.625Z" fill="#006BB6"/>
<path fill-rule="evenodd" clip-rule="evenodd" d="M145.56 119.845C160.71 93.595 189.54 80.185 217.85 83.385V97.475C194.4 94.185 170.23 105.065 157.66 126.835C155.09 131.285 153.16 135.935 151.83 140.665C147.61 138.755 143.18 137.225 138.59 136.125C140.22 130.555 142.53 125.085 145.56 119.845ZM149.66 155.175C149.45 163.385 150.94 171.545 153.98 179.115C149.25 173.765 143.22 169.585 136.39 167.065C135.59 161.395 135.44 155.625 135.97 149.865C140.79 151.075 145.38 152.875 149.66 155.175Z" fill="#00B9F2"/>
<path fill-rule="evenodd" clip-rule="evenodd" d="M171.81 134.995C181.36 118.465 200.11 110.565 217.85 114.025V128.165C204.98 124.395 190.72 129.735 183.71 141.865C179.72 148.785 178.81 156.645 180.58 163.835C176.57 158.465 171.86 153.655 166.56 149.545C167.4 144.565 169.13 139.635 171.81 134.995Z" fill="#00B9F2"/>
<path fill-rule="evenodd" clip-rule="evenodd" d="M121.36 134.095C151.67 134.095 177.7 152.355 189.08 178.475L176.88 185.525C168.01 163.575 146.5 148.085 121.36 148.085C116.22 148.085 111.23 148.735 106.47 149.955C106.02 145.345 105.13 140.745 103.78 136.215C109.41 134.825 115.3 134.095 121.36 134.095ZM92.81 155.305C85.59 159.235 79.27 164.595 74.23 171.015C76.5 164.245 77.11 156.935 75.87 149.765C80.38 146.235 85.3 143.225 90.56 140.805C91.92 145.585 92.66 150.455 92.81 155.305Z" fill="#006BB6"/>
<path fill-rule="evenodd" clip-rule="evenodd" d="M121.36 164.395C140.45 164.395 156.67 176.685 162.54 193.785L150.29 200.855C147.12 187.815 135.37 178.145 121.36 178.145C113.37 178.145 106.12 181.295 100.77 186.415C103.42 180.255 105.23 173.765 106.14 167.135C110.87 165.365 116 164.395 121.36 164.395ZM92.3799 201.035L92.3698 201.095L92.3499 201.085L92.3799 201.035Z" fill="#006BB6"/>
<path fill-rule="evenodd" clip-rule="evenodd" d="M225.97 101.635C228.36 97.485 233.67 96.065 237.82 98.465C241.97 100.855 243.39 106.165 240.99 110.315C238.6 114.465 233.29 115.885 229.14 113.485C225 111.085 223.58 105.785 225.97 101.635Z" fill="#006BB6"/>
<path fill-rule="evenodd" clip-rule="evenodd" d="M169.76 13.015C167.37 8.86499 168.79 3.565 172.93 1.165C177.08 -1.235 182.38 0.194996 184.78 4.335C187.17 8.485 185.75 13.785 181.61 16.185C177.46 18.585 172.16 17.165 169.76 13.015Z" fill="#006BB6"/>
<path fill-rule="evenodd" clip-rule="evenodd" d="M64.91 17.385C60.12 17.385 56.24 13.505 56.24 8.71504C56.24 3.92504 60.12 0.0450439 64.91 0.0450439C69.7 0.0450439 73.58 3.92504 73.58 8.71504C73.58 13.505 69.7 17.385 64.91 17.385Z" fill="#006BB6"/>
<path fill-rule="evenodd" clip-rule="evenodd" d="M16.2599 110.375C13.8699 114.525 8.55994 115.945 4.40994 113.545C0.259937 111.145 -1.16007 105.845 1.23993 101.695C3.62993 97.545 8.93993 96.125 13.0899 98.525C17.2399 100.925 18.6599 106.225 16.2599 110.375Z" fill="#006BB6"/>
<path fill-rule="evenodd" clip-rule="evenodd" d="M72.4699 198.995C74.8599 203.145 73.4399 208.445 69.2999 210.845C65.1499 213.235 59.8499 211.815 57.4499 207.675C55.0599 203.525 56.4799 198.225 60.6199 195.825C64.7799 193.425 70.0799 194.845 72.4699 198.995Z" fill="#006BB6"/>
</svg>
