<svg width="243" height="212" viewBox="0 0 243 212" fill="none" xmlns="http://www.w3.org/2000/svg">
<path fill-rule="evenodd" clip-rule="evenodd" d="M96.8371 120.255C111.987 146.495 109.197 178.175 92.2671 201.085L80.0671 194.045C94.6471 175.385 97.3071 149.015 84.7371 127.245C82.1671 122.795 79.1071 118.795 75.6771 115.285C79.4471 112.595 82.9771 109.515 86.2271 106.085C90.2371 110.275 93.8171 115.005 96.8371 120.255ZM64.1971 106.135C57.1871 101.845 49.3771 99.0549 41.2971 97.9049C48.2971 96.4849 54.9271 93.3549 60.5271 88.6949C65.8371 90.8349 70.9071 93.5849 75.6371 96.9349C72.1771 100.505 68.3271 103.585 64.1971 106.135Z" fill="#73CEE1"/>
<path fill-rule="evenodd" clip-rule="evenodd" d="M70.5973 135.405C80.1473 151.935 77.6073 172.125 65.7373 185.765L53.4873 178.695C63.1873 169.435 65.6973 154.415 58.6873 142.285C54.6873 135.365 48.3373 130.655 41.2273 128.585C47.8873 127.805 54.4073 126.125 60.6073 123.595C64.5173 126.815 67.9173 130.765 70.5973 135.405Z" fill="#73CEE1"/>
<path fill-rule="evenodd" clip-rule="evenodd" d="M96.6071 92.165C81.4571 118.405 52.6271 131.825 24.3171 128.625V114.535C47.7671 117.825 71.9371 106.945 84.5071 85.175C87.0771 80.725 89.0071 76.075 90.3371 71.345C94.5571 73.255 98.9871 74.785 103.577 75.885C101.947 81.455 99.6271 86.925 96.6071 92.165ZM92.5071 56.835C92.7171 48.625 91.2271 40.465 88.1871 32.895C92.9171 38.245 98.9471 42.425 105.777 44.945C106.577 50.615 106.727 56.385 106.197 62.145C101.367 60.935 96.7771 59.135 92.5071 56.835Z" fill="#00B9F2"/>
<path fill-rule="evenodd" clip-rule="evenodd" d="M70.3571 77.0151C60.8071 93.5451 42.0571 101.445 24.3171 97.9851V83.845C37.1871 87.615 51.4471 82.2851 58.4571 70.1451C62.4471 63.225 63.3571 55.365 61.5871 48.175C65.5971 53.545 70.3071 58.355 75.6071 62.465C74.7571 67.445 73.0371 72.3751 70.3571 77.0151Z" fill="#00B9F2"/>
<path fill-rule="evenodd" clip-rule="evenodd" d="M120.807 77.915C90.4972 77.915 64.4672 59.655 53.0872 33.535L65.2872 26.495C74.1572 48.445 95.6672 63.935 120.807 63.935C125.947 63.935 130.937 63.285 135.697 62.065C136.147 66.675 137.037 71.275 138.387 75.805C132.747 77.185 126.867 77.915 120.807 77.915ZM149.357 56.705C156.577 52.775 162.897 47.415 167.937 40.995C165.667 47.765 165.057 55.075 166.297 62.245C161.797 65.775 156.867 68.785 151.607 71.205C150.237 66.425 149.497 61.555 149.357 56.705Z" fill="#006BB6"/>
<path fill-rule="evenodd" clip-rule="evenodd" d="M120.807 47.615C101.717 47.615 85.4972 35.325 79.6272 18.225L91.8772 11.155C95.0472 24.195 106.797 33.865 120.807 33.865C128.797 33.865 136.047 30.715 141.397 25.595C138.747 31.755 136.937 38.245 136.027 44.875C131.297 46.645 126.167 47.615 120.807 47.615Z" fill="#006BB6"/>
<path fill-rule="evenodd" clip-rule="evenodd" d="M145.247 91.7551C130.097 65.5051 132.887 33.835 149.817 10.925L162.017 17.965C147.437 36.625 144.777 62.9951 157.347 84.7651C159.917 89.2151 162.977 93.2151 166.407 96.7251C162.637 99.4151 159.107 102.495 155.857 105.925C151.857 101.735 148.277 97.0051 145.247 91.7551ZM177.897 105.875C184.907 110.165 192.717 112.955 200.797 114.105C193.797 115.525 187.167 118.655 181.567 123.315C176.257 121.175 171.187 118.425 166.457 115.075C169.917 111.505 173.767 108.425 177.897 105.875Z" fill="#73CEE1"/>
<path fill-rule="evenodd" clip-rule="evenodd" d="M171.497 76.605C161.947 60.075 164.487 39.885 176.357 26.245L188.607 33.315C178.907 42.575 176.397 57.595 183.407 69.725C187.407 76.645 193.757 81.355 200.867 83.425C194.207 84.205 187.687 85.885 181.487 88.415C177.577 85.195 174.177 81.245 171.497 76.605Z" fill="#73CEE1"/>
<path fill-rule="evenodd" clip-rule="evenodd" d="M120.987 96.255C126.477 96.255 130.927 100.705 130.927 106.195C130.927 111.685 126.477 116.135 120.987 116.135C115.497 116.135 111.047 111.685 111.047 106.195C111.047 100.705 115.497 96.255 120.987 96.255Z" fill="#006BB6"/>
<path fill-rule="evenodd" clip-rule="evenodd" d="M177.257 194.625C182.047 194.625 185.927 198.505 185.927 203.295C185.927 208.085 182.047 211.965 177.257 211.965C172.467 211.965 168.587 208.085 168.587 203.295C168.587 198.505 172.467 194.625 177.257 194.625Z" fill="#006BB6"/>
<path fill-rule="evenodd" clip-rule="evenodd" d="M145.487 119.845C160.637 93.595 189.467 80.185 217.777 83.385V97.475C194.327 94.185 170.157 105.065 157.587 126.835C155.017 131.285 153.087 135.935 151.757 140.665C147.537 138.755 143.107 137.225 138.517 136.125C140.147 130.555 142.457 125.085 145.487 119.845ZM149.587 155.175C149.377 163.385 150.867 171.545 153.907 179.115C149.177 173.765 143.147 169.585 136.317 167.065C135.517 161.395 135.367 155.625 135.897 149.865C140.717 151.075 145.307 152.875 149.587 155.175Z" fill="#00B9F2"/>
<path fill-rule="evenodd" clip-rule="evenodd" d="M171.737 134.995C181.287 118.465 200.037 110.565 217.777 114.025V128.165C204.907 124.395 190.647 129.735 183.637 141.865C179.647 148.785 178.737 156.645 180.507 163.835C176.497 158.465 171.787 153.655 166.487 149.545C167.327 144.565 169.057 139.635 171.737 134.995Z" fill="#00B9F2"/>
<path fill-rule="evenodd" clip-rule="evenodd" d="M121.287 134.095C151.597 134.095 177.627 152.355 189.007 178.475L176.807 185.525C167.937 163.575 146.427 148.085 121.287 148.085C116.147 148.085 111.157 148.735 106.397 149.955C105.947 145.345 105.057 140.745 103.707 136.215C109.337 134.825 115.227 134.095 121.287 134.095ZM92.7372 155.305C85.5172 159.235 79.1972 164.595 74.1572 171.015C76.4272 164.245 77.0372 156.935 75.7972 149.765C80.3072 146.235 85.2272 143.225 90.4872 140.805C91.8472 145.585 92.5872 150.455 92.7372 155.305Z" fill="#006BB6"/>
<path fill-rule="evenodd" clip-rule="evenodd" d="M121.287 164.395C140.377 164.395 156.597 176.685 162.467 193.785L150.217 200.855C147.047 187.815 135.297 178.145 121.287 178.145C113.297 178.145 106.047 181.295 100.697 186.415C103.347 180.255 105.157 173.765 106.067 167.135C110.797 165.365 115.927 164.395 121.287 164.395ZM92.3071 201.035L92.2971 201.095L92.2771 201.085L92.3071 201.035Z" fill="#006BB6"/>
<path fill-rule="evenodd" clip-rule="evenodd" d="M225.897 101.635C228.287 97.485 233.597 96.065 237.747 98.465C241.897 100.855 243.317 106.165 240.917 110.315C238.527 114.465 233.217 115.885 229.067 113.485C224.927 111.085 223.507 105.785 225.897 101.635Z" fill="#006BB6"/>
<path fill-rule="evenodd" clip-rule="evenodd" d="M169.687 13.015C167.297 8.86499 168.717 3.565 172.857 1.165C177.007 -1.235 182.307 0.194996 184.707 4.335C187.097 8.485 185.677 13.785 181.537 16.185C177.387 18.585 172.087 17.165 169.687 13.015Z" fill="#006BB6"/>
<path fill-rule="evenodd" clip-rule="evenodd" d="M64.8372 17.385C60.0472 17.385 56.1672 13.505 56.1672 8.71504C56.1672 3.92504 60.0472 0.0450439 64.8372 0.0450439C69.6272 0.0450439 73.5072 3.92504 73.5072 8.71504C73.5072 13.505 69.6272 17.385 64.8372 17.385Z" fill="#006BB6"/>
<path fill-rule="evenodd" clip-rule="evenodd" d="M16.1872 110.375C13.7972 114.525 8.48718 115.945 4.33718 113.545C0.187183 111.145 -1.23282 105.845 1.16718 101.695C3.55718 97.545 8.86718 96.125 13.0172 98.525C17.1672 100.925 18.5872 106.225 16.1872 110.375Z" fill="#006BB6"/>
<path fill-rule="evenodd" clip-rule="evenodd" d="M72.3971 198.995C74.7871 203.145 73.3671 208.445 69.2271 210.845C65.0771 213.235 59.7771 211.815 57.3771 207.675C54.9871 203.525 56.4071 198.225 60.5471 195.825C64.7071 193.425 70.0071 194.845 72.3971 198.995Z" fill="#006BB6"/>
</svg>
